<?xml version="1.0" encoding="UTF-8"?>
<svg version="1.1" xmlns="http://www.w3.org/2000/svg" width="400" height="400">
<path d="M0 0 C1.35983757 -0.00422974 1.35983757 -0.00422974 2.74714661 -0.00854492 C3.7398053 -0.00652069 4.73246399 -0.00449646 5.75520325 -0.00241089 C6.8028334 -0.00416321 7.85046356 -0.00591553 8.92984009 -0.00772095 C12.40785867 -0.01213585 15.88582668 -0.00919997 19.36384583 -0.00582886 C21.78745534 -0.00650266 24.21106479 -0.00747332 26.63467407 -0.00872803 C31.72824239 -0.01020505 36.82179321 -0.00805273 41.9153595 -0.00338745 C48.40543887 0.00227042 54.89547652 -0.00094391 61.38555431 -0.00695992 C66.40025132 -0.01059924 71.41493869 -0.00941088 76.429636 -0.00683212 C78.81953753 -0.00617009 81.20943997 -0.00696568 83.59934044 -0.00931168 C113.64730791 -0.03230592 113.64730791 -0.03230592 121.57087708 1.12698364 C123.57087708 3.12698364 123.57087708 3.12698364 123.61775208 5.67385864 C123.29445896 9.16202118 122.95614561 12.64502841 122.57087708 16.12698364 C122.43423645 17.40315552 122.29759583 18.67932739 122.15681458 19.99417114 C120.97915318 29.59510555 120.97915318 29.59510555 119.30114746 31.78111267 C117.1245595 33.47414665 115.9293636 33.52012853 113.1912384 33.55935669 C111.87020866 33.58904793 111.87020866 33.58904793 110.52249146 33.61933899 C109.57552902 33.62572891 108.62856659 33.63211884 107.65290833 33.63870239 C106.68052719 33.65665359 105.70814606 33.6746048 104.70629883 33.69309998 C101.59870244 33.74730831 98.49126055 33.78113262 95.38337708 33.81448364 C93.27723573 33.8476474 91.17111481 33.88213617 89.0650177 33.91799927 C83.90028062 34.00553718 78.7362539 34.06551629 73.57087708 34.12698364 C69.94087708 41.71698364 66.31087708 49.30698364 62.57087708 57.12698364 C64.53115569 58.37917069 64.53115569 58.37917069 66.66218567 57.59793091 C67.50603821 57.29943237 68.34989075 57.00093384 69.21931458 56.69338989 C70.14228333 56.37434692 71.06525208 56.05530396 72.01618958 55.72659302 C72.98298645 55.38434692 73.94978333 55.04210083 74.94587708 54.68948364 C76.84755922 54.01852724 78.75114709 53.35294194 80.65681458 52.69338989 C81.92597717 52.2439502 81.92597717 52.2439502 83.22077942 51.78543091 C85.57087708 51.12698364 85.57087708 51.12698364 89.57087708 51.12698364 C90.33259583 53.26760864 90.33259583 53.26760864 90.57087708 56.12698364 C88.90290833 58.86135864 88.90290833 58.86135864 86.38337708 61.87698364 C85.44775368 63.02792905 84.51562149 64.18171892 83.58650208 65.33792114 C82.84496887 66.25589478 82.84496887 66.25589478 82.0884552 67.19241333 C79.46801216 70.53288802 77.0580538 74.01818918 74.63337708 77.50198364 C70.86782907 82.88837538 67.04938743 88.22403782 63.13337708 93.50198364 C57.72775141 100.80378211 52.61523134 108.29665541 47.51618958 115.81448364 C47.02046448 116.53950073 46.52473938 117.26451782 46.01399231 118.01150513 C45.05918619 119.41116594 44.11320771 120.81689357 43.17658997 122.22879028 C42.03770526 123.90608766 40.81119227 125.52323707 39.57087708 127.12698364 C36.75837708 127.56448364 36.75837708 127.56448364 34.57087708 127.12698364 C32.94688125 123.10829287 34.30455148 119.75808947 35.55525208 115.83401489 C35.77151245 115.12855026 35.98777283 114.42308563 36.21058655 113.69624329 C36.90456404 111.44094092 37.6125943 109.19032922 38.32087708 106.93948364 C38.782721 105.44432062 39.24366794 103.94888021 39.70368958 102.45315552 C41.90662588 95.31555886 44.16779226 88.2000633 46.57087708 81.12698364 C45.59247864 81.52530396 45.59247864 81.52530396 44.59431458 81.93167114 C30.65948685 87.56315019 30.65948685 87.56315019 25.57087708 87.12698364 C25.24087708 86.79698364 24.91087708 86.46698364 24.57087708 86.12698364 C24.76324682 80.20127921 26.04914222 74.37455023 27.38337708 68.61917114 C27.55715881 67.84944977 27.73094055 67.07972839 27.9099884 66.28668213 C28.45900403 63.85737428 29.01441811 61.42959635 29.57087708 59.00198364 C30.12657275 56.56707018 30.6807801 54.13184558 31.23176575 51.69586182 C31.57276713 50.18923881 31.91650408 48.68323127 32.26350403 47.17797852 C33.24780469 42.84095114 33.99938729 38.53799003 34.57087708 34.12698364 C33.28922668 34.14269409 32.00757629 34.15840454 30.68708801 34.17459106 C25.93112983 34.2288992 21.17519905 34.26333706 16.41902161 34.29177856 C14.36070649 34.30686314 12.3024235 34.32733352 10.24421692 34.353302 C7.28531464 34.3896995 4.3268374 34.4067133 1.36775208 34.41995239 C-0.01213898 34.44317818 -0.01213898 34.44317818 -1.41990662 34.46687317 C-7.76147836 34.4685429 -7.76147836 34.4685429 -11.02043152 32.80130005 C-13.35396461 30.0277524 -12.73147121 27.65320843 -12.42912292 24.12698364 C-12.05295436 20.88235624 -11.57522048 17.66377479 -11.05412292 14.43948364 C-10.9277948 13.59837036 -10.80146667 12.75725708 -10.67131042 11.89065552 C-10.54240417 11.07790161 -10.41349792 10.26514771 -10.28068542 9.42776489 C-10.16547546 8.69726929 -10.0502655 7.96677368 -9.93156433 7.21414185 C-9.37697202 4.91034707 -8.69701879 3.13198384 -7.42912292 1.12698364 C-4.61394113 0.18858971 -2.91159269 0.00139373 0 0 Z " fill="#FA6D18" transform="translate(142.4291229248047,81.87301635742188)"/>
<path d="M0 0 C0.9075 0.00257813 1.815 0.00515625 2.75 0.0078125 C4.11125 0.00394531 4.11125 0.00394531 5.5 0 C7.75 0.1328125 7.75 0.1328125 8.75 1.1328125 C8.98701239 3.99159159 9.17219182 6.83164547 9.3125 9.6953125 C9.35568359 10.50162109 9.39886719 11.30792969 9.44335938 12.13867188 C9.54975262 14.13650055 9.65040888 16.1346332 9.75 18.1328125 C10.44480469 17.64941406 11.13960938 17.16601562 11.85546875 16.66796875 C16.94503579 13.96864372 22.1470673 14.32658639 27.75 15.1328125 C33.83836895 17.60894341 37.30206038 22.47778602 39.8984375 28.359375 C42.05254143 35.37503459 41.68020696 41.87897768 38.6875 48.5703125 C35.59949393 54.0425056 31.76879717 57.12654678 25.75 59.1328125 C19.62074793 59.75048906 15.21575999 58.92383888 9.75 56.1328125 C9.09 56.7928125 8.43 57.4528125 7.75 58.1328125 C5.40234375 58.36328125 5.40234375 58.36328125 2.6875 58.3203125 C1.78902344 58.31386719 0.89054687 58.30742187 -0.03515625 58.30078125 C-2.25 58.1328125 -2.25 58.1328125 -3.25 57.1328125 C-3.34887792 55.38898715 -3.37799032 53.64115707 -3.37939453 51.89453125 C-3.38254669 50.77667236 -3.38569885 49.65881348 -3.38894653 48.50708008 C-3.3869223 47.29044678 -3.38489807 46.07381348 -3.3828125 44.8203125 C-3.38376923 43.58112061 -3.38472595 42.34192871 -3.38571167 41.06518555 C-3.38639374 38.43892969 -3.38503538 35.81276617 -3.38037109 33.18652344 C-3.37467381 29.81352536 -3.37795302 26.44060685 -3.38394356 23.06761169 C-3.3884177 19.86017573 -3.38528882 16.6527495 -3.3828125 13.4453125 C-3.38483673 12.2286792 -3.38686096 11.0120459 -3.38894653 9.75854492 C-3.38579437 8.64068604 -3.38264221 7.52282715 -3.37939453 6.37109375 C-3.37859894 5.38149658 -3.37780334 4.39189941 -3.37698364 3.37231445 C-3.20506774 0.34038059 -3.03147878 0.17894146 0 0 Z M9.75 30.1328125 C7.89488539 33.84304172 8.30357895 38.08313585 8.75 42.1328125 C10.73929797 45.9522646 12.19541103 46.88632851 16.125 48.6328125 C20.5003483 49.23630882 22.1365821 48.59650652 25.75 46.1328125 C27.93270693 44.24113316 28.62657691 42.93125325 29.06640625 40.0859375 C29.35105739 34.61328976 28.39682874 31.42319926 24.75 27.1328125 C19.03127892 24.27345196 13.97229913 25.78256491 9.75 30.1328125 Z " fill="#C7723B" transform="translate(296.25,223.8671875)"/>
<path d="M0 0 C4.41973794 0.66546836 4.41973794 0.66546836 8.828125 0.0859375 C15.06490446 -1.41717122 21.89873043 -1.608656 27.5 1.75 C32.53006216 5.46514965 35.62854959 9.39097315 37 15.5625 C37.79850071 23.23294619 36.94181393 29.84322334 33 36.5625 C29.43745674 40.72042721 25.13675647 43.26727586 19.67578125 43.78125 C14.17490821 43.97859074 10.90166013 43.26661818 6 40.5625 C5.93941406 41.77808594 5.87882813 42.99367188 5.81640625 44.24609375 C5.73201668 45.83074228 5.6473679 47.41537702 5.5625 49 C5.50352539 50.20366211 5.50352539 50.20366211 5.44335938 51.43164062 C5.11328125 57.44921875 5.11328125 57.44921875 4 58.5625 C2.33570949 58.66073937 0.66718069 58.69223631 -1 58.6875 C-2.36125 58.69136719 -2.36125 58.69136719 -3.75 58.6953125 C-6 58.5625 -6 58.5625 -7 57.5625 C-7.09370624 55.78258076 -7.11744271 53.99893261 -7.11352539 52.21655273 C-7.11344986 51.0754454 -7.11337433 49.93433807 -7.11329651 48.75865173 C-7.10813522 47.5170076 -7.10297394 46.27536346 -7.09765625 44.99609375 C-7.0962413 43.73233414 -7.09482635 42.46857452 -7.09336853 41.16651917 C-7.08870582 37.80125111 -7.0797148 34.4360501 -7.06866455 31.07080078 C-7.05844846 27.6390033 -7.05387049 24.20719891 -7.04882812 20.77539062 C-7.0377738 14.03774176 -7.0210171 7.30012475 -7 0.5625 C-4.03059337 -0.42730221 -2.96744375 -0.45523285 0 0 Z M7 12.5625 C4.32137666 16.74784896 3.6606636 19.35118084 4.5 24.25 C5.37800995 27.41191313 6.01536611 28.57911201 8.3125 31.0625 C12.02547999 33.13486092 14.36739042 33.92087771 18.5625 33 C21.95267909 31.00066361 23.24169011 29.07911979 25 25.5625 C25.88194975 21.09039114 25.35275706 18.24281719 23.25 14.1875 C21.14806097 11.7352378 20.03668129 10.5114629 17 9.5625 C12.52080453 9.5625 10.70928562 10.11594991 7 12.5625 Z " fill="#F6711E" transform="translate(160,239.4375)"/>
<path d="M0 0 C1.10021484 -0.0299707 1.10021484 -0.0299707 2.22265625 -0.06054688 C7.43180596 -0.05588753 10.34803669 1.05814105 14.5 4.4375 C18.3584472 8.82814681 18.62755482 12.49666436 18.6328125 18.22265625 C18.63376923 18.87954941 18.63472595 19.53644257 18.63571167 20.21324158 C18.63639113 21.59927466 18.63455314 22.98531095 18.63037109 24.37133789 C18.62501091 26.49567783 18.6303283 28.61980717 18.63671875 30.74414062 C18.63605809 32.0911463 18.63477719 33.43815185 18.6328125 34.78515625 C18.63168457 36.01242432 18.63055664 37.23969238 18.62939453 38.50415039 C18.5 41.4375 18.5 41.4375 17.5 43.4375 C15.87536158 43.49145478 14.25021459 43.53027195 12.625 43.5625 C11.26761719 43.59730469 11.26761719 43.59730469 9.8828125 43.6328125 C7.5 43.4375 7.5 43.4375 5.5 41.4375 C4.901875 41.9325 4.30375 42.4275 3.6875 42.9375 C-2.000699 45.61429953 -8.05744958 45.28129014 -13.9375 43.25 C-17.78998554 40.52507121 -19.96494537 38.07833421 -21.4375 33.5625 C-21.5309015 28.8924252 -19.93356799 25.32720326 -17.125 21.625 C-12.80680917 18.46939901 -7.86822938 17.91733156 -2.6875 17.3125 C-1.99462891 17.22613281 -1.30175781 17.13976562 -0.58789062 17.05078125 C1.10733706 16.84033919 2.80357755 16.63808328 4.5 16.4375 C4.83 15.4475 5.16 14.4575 5.5 13.4375 C4.70497806 11.32687692 4.70497806 11.32687692 2.875 10.6875 C-0.65300849 10.31613068 -3.20934329 11.18106744 -6.5 12.4375 C-6.95375 13.13875 -7.4075 13.84 -7.875 14.5625 C-9.5 16.4375 -9.5 16.4375 -11.640625 16.73046875 C-13.96021471 16.74870452 -16.1969519 16.71735246 -18.5 16.4375 C-19.5 15.4375 -19.5 15.4375 -19.875 12.75 C-19.40066439 8.56003542 -17.67559822 6.07398504 -14.5 3.4375 C-9.57626738 0.37287586 -5.62787477 -0.05439949 0 0 Z M-8.5 29.4375 C-8.09471099 32.21987655 -8.09471099 32.21987655 -6.5 34.4375 C-0.54592898 35.07962391 -0.54592898 35.07962391 4.5 32.1875 C6.89211447 29.46507055 6.89211447 29.46507055 6.5 25.4375 C-1.7393432 25.12036848 -1.7393432 25.12036848 -8.5 29.4375 Z " fill="#E6712C" transform="translate(128.5,238.5625)"/>
<path d="M0 0 C4.77670603 4.18931526 8.34835101 9.97567051 8.95703125 16.33203125 C9.18443846 23.79273688 8.79053439 28.83486368 3.68359375 34.4765625 C-1.24972396 39.51319577 -6.08053325 41.7591854 -13.12890625 41.8515625 C-20.55685464 41.70573775 -25.29905556 39.55550412 -30.69140625 34.5390625 C-34.95747629 29.90303516 -36.18134084 24.72333753 -36.31640625 18.4765625 C-35.83807498 10.99599285 -32.5777812 5.70545983 -27.31640625 0.4765625 C-19.92947237 -4.49831134 -7.66994508 -4.58547254 0 0 Z M-20.31640625 10.4765625 C-23.70097146 14.24443991 -23.89047977 17.07211838 -23.73046875 21.99609375 C-23.03241878 26.17780821 -21.54758505 27.73708482 -18.31640625 30.4765625 C-14.9941198 31.58399132 -13.08145411 31.65871675 -9.69140625 30.8515625 C-6.56748272 29.04297519 -5.12734598 27.62893907 -3.31640625 24.4765625 C-2.44538805 19.70795779 -2.86292449 16.36733024 -5.06640625 12.0390625 C-7.168165 9.64539281 -8.31667406 8.41397881 -11.31640625 7.4765625 C-15.66913182 7.4765625 -16.87680738 8.0071069 -20.31640625 10.4765625 Z " fill="#F57526" transform="translate(280.31640625,241.5234375)"/>
<path d="M0 0 C1.49186577 0.01061211 1.49186577 0.01061211 3.01387024 0.0214386 C6.19360258 0.04944967 9.37158031 0.11220203 12.55078125 0.17578125 C14.70505271 0.20085537 16.85935175 0.22367008 19.01367188 0.24414062 C24.29747466 0.29929785 29.58025263 0.38299027 34.86328125 0.48828125 C37.29395352 8.43470982 37.29395352 8.43470982 35.86328125 12.48828125 C32.79794961 14.02094707 29.59573853 13.59104596 26.23828125 13.55078125 C25.531875 13.54626953 24.82546875 13.54175781 24.09765625 13.53710938 C22.3528285 13.52532 20.60804425 13.50738449 18.86328125 13.48828125 C18.8382251 14.78564209 18.81316895 16.08300293 18.78735352 17.41967773 C18.69346373 22.21486981 18.59319876 27.00991075 18.4909668 31.80493164 C18.44754791 33.88367182 18.40587813 35.96244928 18.3659668 38.04125977 C18.30843204 41.0224127 18.24469006 44.00337674 18.1796875 46.984375 C18.15461876 48.38749184 18.15461876 48.38749184 18.12904358 49.81895447 C18.10909836 50.67977127 18.08915314 51.54058807 18.06860352 52.42749023 C18.05305923 53.18916 18.03751495 53.95082977 18.02149963 54.73558044 C17.86328125 56.48828125 17.86328125 56.48828125 16.86328125 57.48828125 C15.22097761 57.61282985 13.57275849 57.66396649 11.92578125 57.67578125 C11.02988281 57.68996094 10.13398437 57.70414062 9.2109375 57.71875 C6.86328125 57.48828125 6.86328125 57.48828125 4.86328125 55.48828125 C4.62277222 53.65328979 4.62277222 53.65328979 4.63623047 51.40576172 C4.63638153 50.5650412 4.63653259 49.72432068 4.63668823 48.85812378 C4.6470108 47.94974762 4.65733337 47.04137146 4.66796875 46.10546875 C4.67079865 45.17606476 4.67362854 44.24666077 4.67654419 43.28909302 C4.68776056 40.31369275 4.71286765 37.3385909 4.73828125 34.36328125 C4.74830917 32.34896267 4.75743535 30.33463939 4.765625 28.3203125 C4.78770464 23.37618669 4.82224432 18.4322846 4.86328125 13.48828125 C-0.41671875 13.15828125 -5.69671875 12.82828125 -11.13671875 12.48828125 C-13.13671875 5.48828125 -13.13671875 5.48828125 -12.39526367 2.58129883 C-8.72668495 -0.81841205 -4.81566971 -0.12827269 0 0 Z " fill="#F47020" transform="translate(78.13671875,224.51171875)"/>
<path d="M0 0 C3.20559409 0 5.02933015 -0.2474303 8 -1 C14.83466283 -1.69834913 19.50299235 -1.26298553 25 3 C28.42720618 8.48352989 29.12653691 13.10581758 29.1328125 19.48046875 C29.13410156 20.72634766 29.13539063 21.97222656 29.13671875 23.25585938 C29.13285156 24.55330078 29.12898438 25.85074219 29.125 27.1875 C29.13080078 29.15106445 29.13080078 29.15106445 29.13671875 31.15429688 C29.13542969 32.39630859 29.13414062 33.63832031 29.1328125 34.91796875 C29.13168457 36.06031982 29.13055664 37.2026709 29.12939453 38.37963867 C29 41 29 41 28 42 C26.33570949 42.09823937 24.66718069 42.12973631 23 42.125 C21.63875 42.12886719 21.63875 42.12886719 20.25 42.1328125 C18 42 18 42 17 41 C16.87850991 39.20585849 16.82031922 37.40735348 16.7890625 35.609375 C16.76070312 34.50722656 16.73234375 33.40507812 16.703125 32.26953125 C16.65139192 29.93895578 16.60701897 27.60820432 16.5703125 25.27734375 C16.539375 24.17003906 16.5084375 23.06273437 16.4765625 21.921875 C16.45674316 20.90706055 16.43692383 19.89224609 16.41650391 18.84667969 C15.93310925 15.54282172 15.05207578 13.62575524 13 11 C9.44304044 10.49186292 7.14012223 10.20191444 4.125 12.3125 C1.88151506 15.6777274 1.82313986 18.83449265 1.68359375 22.76171875 C1.64169922 23.87998047 1.59980469 24.99824219 1.55664062 26.15039062 C1.51732422 27.31763672 1.47800781 28.48488281 1.4375 29.6875 C1.39431641 30.86634766 1.35113281 32.04519531 1.30664062 33.25976562 C1.20048824 36.17305883 1.09843758 39.08643757 1 42 C-0.81242052 42.02687279 -2.62495233 42.04633715 -4.4375 42.0625 C-5.44683594 42.07410156 -6.45617187 42.08570313 -7.49609375 42.09765625 C-10 42 -10 42 -11 41 C-11.08868299 38.04294679 -11.11520296 35.10934944 -11.09765625 32.15234375 C-11.0962413 31.2659169 -11.09482635 30.37949005 -11.09336853 29.46620178 C-11.08775215 26.62326746 -11.07519691 23.78041069 -11.0625 20.9375 C-11.05748711 19.01497509 -11.05292384 17.09244896 -11.04882812 15.16992188 C-11.03777741 10.44658451 -11.02050183 5.72330542 -11 1 C-6.97204722 -1.3143062 -4.5555563 -0.8134922 0 0 Z " fill="#C56932" transform="translate(212,240)"/>
<path d="M0 0 C1.98 0 3.96 0 6 0 C5.99476318 1.05912598 5.98952637 2.11825195 5.98413086 3.20947266 C5.96596594 7.15672961 5.95452611 11.1039829 5.94506836 15.05126953 C5.94005436 16.75635399 5.9332415 18.46143418 5.92456055 20.16650391 C5.91236615 22.62403419 5.90674225 25.08150738 5.90234375 27.5390625 C5.89718246 28.29555084 5.89202118 29.05203918 5.88670349 29.83145142 C5.8862667 33.99682563 6.18342962 37.91432259 7 42 C7.99 42.33 8.98 42.66 10 43 C10.33 43.99 10.66 44.98 11 46 C19.03847272 46.57655126 19.03847272 46.57655126 26 43 C26.33 42.34 26.66 41.68 27 41 C27.99 41 28.98 41 30 41 C30.16852247 39.39602723 30.33474886 37.7918131 30.5 36.1875 C30.63921875 34.84751953 30.63921875 34.84751953 30.78125 33.48046875 C31.04392401 30.91694901 31.04392401 30.91694901 31 28 C31.66 28.33 32.32 28.66 33 29 C32.505 27.02 32.505 27.02 32 25 C31.01 25.495 31.01 25.495 30 26 C30.66 24.02 31.32 22.04 32 20 C32.66 20.33 33.32 20.66 34 21 C34 22.32 34 23.64 34 25 C34.99 25.33 35.98 25.66 37 26 C38.44207941 28.88415883 38.09394887 31.41721528 38.0625 34.625 C38.05347656 35.81351562 38.04445313 37.00203125 38.03515625 38.2265625 C38.02355469 39.14179688 38.01195312 40.05703125 38 41 C37.01 41.33 36.02 41.66 35 42 C35.04125 42.763125 35.0825 43.52625 35.125 44.3125 C35 47 35 47 33 50 C32.01 50 31.02 50 30 50 C29.34 50.99 28.68 51.98 28 53 C24.47551493 54.43590132 20.74698278 54.20073122 17 54 C15.65812182 53.3507041 14.32520503 52.68268138 13 52 C10.33640239 51.5311656 7.69454509 51.26945451 5 51 C5 51.66 5 52.32 5 53 C2.69 53 0.38 53 -2 53 C-2.11595958 40.03215082 -2.02212918 27.08619402 -1.5625 14.125 C-1.52326416 12.94897217 -1.48402832 11.77294434 -1.44360352 10.5612793 C-1.40162842 9.47113525 -1.35965332 8.38099121 -1.31640625 7.2578125 C-1.27974854 6.2898877 -1.24309082 5.32196289 -1.20532227 4.32470703 C-1 2 -1 2 0 0 Z " fill="#F76E1A" transform="translate(297,227)"/>
<path d="M0 0 C4.41973794 0.66546836 4.41973794 0.66546836 8.828125 0.0859375 C15.06490446 -1.41717122 21.89873043 -1.608656 27.5 1.75 C32.53006216 5.46514965 35.62854959 9.39097315 37 15.5625 C37.68660598 25.53259103 37.68660598 25.53259103 35 29.5625 C35 25.2725 35 20.9825 35 16.5625 C34.34 16.2325 33.68 15.9025 33 15.5625 C33 14.2425 33 12.9225 33 11.5625 C32.38125 11.315 31.7625 11.0675 31.125 10.8125 C29 9.5625 29 9.5625 28.140625 7.56640625 C27.17209861 5.39465932 27.17209861 5.39465932 24.9765625 4.69921875 C24.20054687 4.55097656 23.42453125 4.40273437 22.625 4.25 C21.85414063 4.08886719 21.08328125 3.92773438 20.2890625 3.76171875 C17.89767557 3.55359463 16.29565451 3.94407879 14 4.5625 C11.99053778 4.29199547 9.98645776 3.96882091 8 3.5625 C8 4.2225 8 4.8825 8 5.5625 C9.44632813 5.67464844 9.44632813 5.67464844 10.921875 5.7890625 C21.11403953 6.84987962 21.11403953 6.84987962 24.875 9.875 C26.69647942 15.84540477 27.55610381 22.82650938 25.09375 28.73828125 C24 30.375 24 30.375 22 32.5625 C21.34 32.2325 20.68 31.9025 20 31.5625 C20.99 30.325 20.99 30.325 22 29.0625 C24.49354443 25.28656129 24.85112697 21.97607593 24 17.5625 C22.62732776 14.04437653 22.62732776 14.04437653 20 11.5625 C15.13761801 10.12179423 11.58090042 10.38111885 7 12.5625 C6.67 13.5525 6.34 14.5425 6 15.5625 C4.35173889 12.59562999 3.55728913 9.90623475 3 6.5625 C2.01 6.5625 1.02 6.5625 0 6.5625 C0 5.9025 0 5.2425 0 4.5625 C-1.32 4.5625 -2.64 4.5625 -4 4.5625 C-3.67 5.67625 -3.34 6.79 -3 7.9375 C-1.23779898 15.64402699 -1.84750511 23.70901309 -2 31.5625 C-3.485 32.0575 -3.485 32.0575 -5 32.5625 C-5 40.4825 -5 48.4025 -5 56.5625 C-2.03 56.5625 0.94 56.5625 4 56.5625 C4 50.2925 4 44.0225 4 37.5625 C5.485 37.0675 5.485 37.0675 7 36.5625 C7.4125 37.036875 7.825 37.51125 8.25 38 C10.182185 39.72516518 11.48192275 40.12834875 14 40.5625 C14 39.9025 14 39.2425 14 38.5625 C14.60328125 38.66949219 15.2065625 38.77648437 15.828125 38.88671875 C20.75811523 39.75184844 20.75811523 39.75184844 25.375 38.3125 C26.4182659 37.18898288 27.46006267 36.06409877 28.5 34.9375 C30.27668702 33.30887023 31.65317496 32.96712501 34 32.5625 C32.37719935 37.87348394 29.53643465 40.11310877 24.8125 42.8125 C17.79451794 44.68396188 12.34805591 44.06455704 6 40.5625 C5.93941406 41.77808594 5.87882813 42.99367188 5.81640625 44.24609375 C5.73201668 45.83074228 5.6473679 47.41537702 5.5625 49 C5.50352539 50.20366211 5.50352539 50.20366211 5.44335938 51.43164062 C5.11328125 57.44921875 5.11328125 57.44921875 4 58.5625 C2.33570949 58.66073937 0.66718069 58.69223631 -1 58.6875 C-2.36125 58.69136719 -2.36125 58.69136719 -3.75 58.6953125 C-6 58.5625 -6 58.5625 -7 57.5625 C-7.09370624 55.78258076 -7.11744271 53.99893261 -7.11352539 52.21655273 C-7.11344986 51.0754454 -7.11337433 49.93433807 -7.11329651 48.75865173 C-7.10813522 47.5170076 -7.10297394 46.27536346 -7.09765625 44.99609375 C-7.0962413 43.73233414 -7.09482635 42.46857452 -7.09336853 41.16651917 C-7.08870582 37.80125111 -7.0797148 34.4360501 -7.06866455 31.07080078 C-7.05844846 27.6390033 -7.05387049 24.20719891 -7.04882812 20.77539062 C-7.0377738 14.03774176 -7.0210171 7.30012475 -7 0.5625 C-4.03059337 -0.42730221 -2.96744375 -0.45523285 0 0 Z " fill="#BF6933" transform="translate(160,239.4375)"/>
<path d="M0 0 C1.71703125 0.02320313 1.71703125 0.02320313 3.46875 0.046875 C6.5 0.25 6.5 0.25 9.5 1.25 C9.83 1.91 10.16 2.57 10.5 3.25 C11.139375 3.3325 11.77875 3.415 12.4375 3.5 C13.4584375 3.87125 13.4584375 3.87125 14.5 4.25 C16.34019537 8.57972945 16.73818587 12.28774002 16.6953125 16.9609375 C16.68886719 18.20488281 16.68242187 19.44882812 16.67578125 20.73046875 C16.65902344 22.01566406 16.64226562 23.30085938 16.625 24.625 C16.61597656 25.93339844 16.60695312 27.24179687 16.59765625 28.58984375 C16.57415085 31.8100837 16.54129087 35.02994707 16.5 38.25 C15.51 38.25 14.52 38.25 13.5 38.25 C13.5 37.59 13.5 36.93 13.5 36.25 C11.85 36.91 10.2 37.57 8.5 38.25 C7.35193622 28.83997722 7.35193622 28.83997722 7.5 24.25 C4.926671 22.9633355 2.99776962 23.08175449 0.125 23.0625 C-0.83148438 23.04832031 -1.78796875 23.03414063 -2.7734375 23.01953125 C-5.58026714 23.25678476 -7.18714788 23.66057422 -9.5 25.25 C-9.83 26.24 -10.16 27.23 -10.5 28.25 C-11.16 28.25 -11.82 28.25 -12.5 28.25 C-12.17 30.23 -11.84 32.21 -11.5 34.25 C-13.48 34.25 -15.46 34.25 -17.5 34.25 C-18.75 27.625 -18.75 27.625 -16.5 24.25 C-13.875 23.5625 -13.875 23.5625 -11.5 23.25 C-11.5 22.59 -11.5 21.93 -11.5 21.25 C-7.36325401 19.24430497 -4.06367887 19.08097486 0.5 19.25 C1.49 19.25 2.48 19.25 3.5 19.25 C4.16 19.25 4.82 19.25 5.5 19.25 C5.5 18.59 5.5 17.93 5.5 17.25 C6.16 16.92 6.82 16.59 7.5 16.25 C7.66681109 13.33347826 7.66681109 13.33347826 7.5 10.25 C4.84177238 7.59177238 3.3939746 7.89019429 -0.3125 7.8125 C-5.34297796 7.81804736 -5.34297796 7.81804736 -9.375 10.75 C-10.07625 11.575 -10.7775 12.4 -11.5 13.25 C-14.8125 13.5625 -14.8125 13.5625 -17.5 13.25 C-17.3125 9.9375 -17.3125 9.9375 -16.5 6.25 C-14.08235424 4.32828158 -12.61532786 3.25 -9.5 3.25 C-9.0978125 2.76015625 -8.695625 2.2703125 -8.28125 1.765625 C-5.61767764 -0.50074797 -3.4318735 -0.07729445 0 0 Z " fill="#F56F1C" transform="translate(128.5,239.75)"/>
<path d="M0 0 C1.65322266 0.01740234 1.65322266 0.01740234 3.33984375 0.03515625 C4.44457031 0.04417969 5.54929688 0.05320313 6.6875 0.0625 C7.54214844 0.07410156 8.39679688 0.08570313 9.27734375 0.09765625 C9.27734375 8.09765625 9.27734375 8.09765625 8.27734375 11.09765625 C7.94734375 10.76765625 7.61734375 10.43765625 7.27734375 10.09765625 C5.24463813 9.85944704 5.24463813 9.85944704 2.90234375 9.84765625 C2.11085937 9.821875 1.319375 9.79609375 0.50390625 9.76953125 C-2.2497966 10.17534009 -3.05537283 10.90870746 -4.72265625 13.09765625 C-5.75980147 16.20909192 -5.92297486 18.59233721 -6.0390625 21.859375 C-6.08095703 22.97763672 -6.12285156 24.09589844 -6.16601562 25.24804688 C-6.20533203 26.41529297 -6.24464844 27.58253906 -6.28515625 28.78515625 C-6.32833984 29.96400391 -6.37152344 31.14285156 -6.41601562 32.35742188 C-6.52216801 35.27071508 -6.62421867 38.18409382 -6.72265625 41.09765625 C-8.20172517 41.12454841 -9.68093108 41.14400246 -11.16015625 41.16015625 C-11.98386719 41.17175781 -12.80757812 41.18335938 -13.65625 41.1953125 C-15.72265625 41.09765625 -15.72265625 41.09765625 -16.72265625 40.09765625 C-16.82366588 37.46645068 -16.86236108 34.86206927 -16.85546875 32.23046875 C-16.85642548 31.4399411 -16.8573822 30.64941345 -16.85836792 29.83493042 C-16.85904984 28.15867025 -16.85719474 26.48240747 -16.85302734 24.80615234 C-16.84769335 22.2404993 -16.85296458 19.67502246 -16.859375 17.109375 C-16.85871394 15.48307253 -16.85743221 13.85677017 -16.85546875 12.23046875 C-16.85749298 11.46163361 -16.85951721 10.69279846 -16.86160278 9.90066528 C-16.84754604 6.70197031 -16.7416087 4.15451359 -15.72265625 1.09765625 C-14.44068359 1.11505859 -14.44068359 1.11505859 -13.1328125 1.1328125 C-11.47572266 1.14634766 -11.47572266 1.14634766 -9.78515625 1.16015625 C-8.13193359 1.17755859 -8.13193359 1.17755859 -6.4453125 1.1953125 C-3.26931859 1.08139593 -3.17599391 0.11391657 0 0 Z " fill="#F57121" transform="translate(218.72265625,239.90234375)"/>
<path d="M0 0 C0.33 0 0.66 0 1 0 C0.42978066 5.3503559 -0.20734361 10.67787852 -1 16 C-0.0925 15.505 0.815 15.01 1.75 14.5 C5 13 5 13 9 13 C9 12.34 9 11.68 9 11 C12.63 11 16.26 11 20 11 C20.14695313 12.35544922 20.14695313 12.35544922 20.296875 13.73828125 C20.44640625 14.91777344 20.5959375 16.09726563 20.75 17.3125 C20.88921875 18.48425781 21.0284375 19.65601563 21.171875 20.86328125 C21.7396715 24.03558951 21.7396715 24.03558951 23.828125 25.91796875 C26.19229919 27.29728351 26.19229919 27.29728351 30 27 C30 26.34 30 25.68 30 25 C31.75 23.4921875 31.75 23.4921875 34 21.875 C34.7425 21.33617187 35.485 20.79734375 36.25 20.2421875 C36.8275 19.83226562 37.405 19.42234375 38 19 C36.6837077 22.6585183 35.09414765 25.46924429 32.75 28.5625 C28.60483407 34.13782465 24.60307699 39.80430221 20.625 45.5 C20.00592773 46.38502197 19.38685547 47.27004395 18.74902344 48.18188477 C16.47344238 51.43884933 14.20399648 54.69400529 12 58 C9.375 58.1875 9.375 58.1875 7 58 C5.37600417 53.98130923 6.73367441 50.63110583 7.984375 46.70703125 C8.20063538 46.00156662 8.41689575 45.29610199 8.63970947 44.56925964 C9.33368696 42.31395728 10.04171722 40.06334557 10.75 37.8125 C11.21184392 36.31733698 11.67279086 34.82189657 12.1328125 33.32617188 C14.3357488 26.18857522 16.59691518 19.07307965 19 12 C18.34773438 12.26554688 17.69546875 12.53109375 17.0234375 12.8046875 C3.08860977 18.43616655 3.08860977 18.43616655 -2 18 C-2.33 17.67 -2.66 17.34 -3 17 C-2.83441026 11.17888361 -1.52509843 5.59202759 0 0 Z " fill="#F37223" transform="translate(170,151)"/>
<path d="M0 0 C0.99 0.99 1.98 1.98 3 3 C3.33 2.34 3.66 1.68 4 1 C10.0546875 0.8046875 10.0546875 0.8046875 12 1 C12.66 1.66 13.32 2.32 14 3 C15.11375 3.0928125 15.11375 3.0928125 16.25 3.1875 C20.44578893 4.42716491 22.4790935 7.54571989 25 11 C26.32229189 13.64458379 26.09677194 15.67761301 26.0625 18.625 C26.05347656 19.62789063 26.04445313 20.63078125 26.03515625 21.6640625 C26.02355469 22.43492187 26.01195312 23.20578125 26 24 C24.35 24.66 22.7 25.32 21 26 C21.20625 27.093125 21.4125 28.18625 21.625 29.3125 C22 33 22 33 20 36 C19.01 36 18.02 36 17 36 C16.91874718 32.42487611 17.13879232 29.44483071 18 26 C18.2143934 24.25309081 18.40107653 22.5025977 18.5625 20.75 C18.64628906 19.85796875 18.73007812 18.9659375 18.81640625 18.046875 C18.90728516 17.03367187 18.90728516 17.03367187 19 16 C20.32 15.67 21.64 15.34 23 15 C22.401875 14.7525 21.80375 14.505 21.1875 14.25 C19 13 19 13 17.7265625 10.9453125 C16.12355053 8.73047585 16.12355053 8.73047585 13.29296875 8.5390625 C5.42751877 8.64725757 5.42751877 8.64725757 -2 11 C-2.33 11.66 -2.66 12.32 -3 13 C-3.99 13 -4.98 13 -6 13 C-6.33 19.6 -6.66 26.2 -7 33 C-7.99 33 -8.98 33 -10 33 C-10.33 31.02 -10.66 29.04 -11 27 C-12.32 26.67 -13.64 26.34 -15 26 C-15 22.04 -15 18.08 -15 14 C-14.34 14 -13.68 14 -13 14 C-13.20625 13.38125 -13.4125 12.7625 -13.625 12.125 C-13.74875 11.42375 -13.8725 10.7225 -14 10 C-12 8 -12 8 -9.375 7.875 C-8.59125 7.91625 -7.8075 7.9575 -7 8 C-7.66 6.68 -8.32 5.36 -9 4 C-6.03 2.68 -3.06 1.36 0 0 Z " fill="#F66F1E" transform="translate(261,241)"/>
<path d="M0 0 C13.54434849 -0.02327117 27.08869215 -0.04098991 40.63305664 -0.05181217 C46.9236726 -0.05700887 53.21427478 -0.06404751 59.50488281 -0.07543945 C65.5868137 -0.08638333 71.66873141 -0.09230098 77.75067139 -0.09487724 C80.05963345 -0.09671092 82.36859488 -0.10029117 84.67755127 -0.10573006 C113.93747854 -0.17185078 113.93747854 -0.17185078 122 1 C124 3 124 3 124.01171875 5.79296875 C123.90472656 6.91316406 123.79773438 8.03335938 123.6875 9.1875 C123.57921875 10.35023437 123.4709375 11.51296875 123.359375 12.7109375 C122.98262769 16.15899436 122.55725502 19.57686203 122 23 C121.67 23 121.34 23 121 23 C120.81548975 9.3667426 120.81548975 9.3667426 122 3 C119.8535247 3.11344376 117.70779408 3.24106345 115.5625 3.375 C113.77005859 3.47941406 113.77005859 3.47941406 111.94140625 3.5859375 C110.97074219 3.72257812 110.00007813 3.85921875 109 4 C108.67 4.66 108.34 5.32 108 6 C104.39590081 6.05800828 100.79192149 6.09359869 97.1875 6.125 C95.65125977 6.15013672 95.65125977 6.15013672 94.08398438 6.17578125 C93.10107422 6.18222656 92.11816406 6.18867187 91.10546875 6.1953125 C90.19949951 6.20578613 89.29353027 6.21625977 88.36010742 6.22705078 C86 6 86 6 83 4 C80.61370907 3.69236227 80.61370907 3.69236227 77.96484375 3.734375 C76.99095703 3.73179688 76.01707031 3.72921875 75.01367188 3.7265625 C73.99853516 3.73429687 72.98339844 3.74203125 71.9375 3.75 C70.91849609 3.74226563 69.89949219 3.73453125 68.84960938 3.7265625 C67.87701172 3.72914062 66.90441406 3.73171875 65.90234375 3.734375 C65.01023193 3.73663086 64.11812012 3.73888672 63.19897461 3.74121094 C60.79276655 3.79415748 60.79276655 3.79415748 59 6 C56.42837683 6.00891892 53.99121804 5.90439112 51.4375 5.6875 C50.41946289 5.61499023 50.41946289 5.61499023 49.38085938 5.54101562 C46.58602664 5.33291781 43.80348578 5.10869463 41.02563477 4.73291016 C33.3944142 3.70937553 25.74336564 3.92583139 18.0625 4 C15.26172298 4.02657464 12.46101139 4.0465251 9.66015625 4.0625 C7.81369507 4.07990234 7.81369507 4.07990234 5.92993164 4.09765625 C3 4 3 4 1 3 C0.67 3.66 0.34 4.32 0 5 C0 3.35 0 1.7 0 0 Z " fill="#DF6D28" transform="translate(142,82)"/>
<path d="M0 0 C1.49186577 0.01061211 1.49186577 0.01061211 3.01387024 0.0214386 C6.19360258 0.04944967 9.37158031 0.11220203 12.55078125 0.17578125 C14.70505271 0.20085537 16.85935175 0.22367008 19.01367188 0.24414062 C24.29747466 0.29929785 29.58025263 0.38299027 34.86328125 0.48828125 C37.29395352 8.43470982 37.29395352 8.43470982 35.86328125 12.48828125 C30.78609918 15.02687229 24.53974337 13.48828125 18.86328125 13.48828125 C18.53328125 27.67828125 18.20328125 41.86828125 17.86328125 56.48828125 C17.53328125 56.48828125 17.20328125 56.48828125 16.86328125 56.48828125 C16.78738731 50.11628831 16.73474775 43.74441134 16.69848633 37.37207031 C16.68337425 35.20308069 16.6628839 33.03412175 16.63696289 30.86523438 C16.60068591 27.75252729 16.58357935 24.6402232 16.5703125 21.52734375 C16.55482864 20.55334625 16.53934479 19.57934875 16.52339172 18.57583618 C16.52316513 17.67505341 16.52293854 16.77427063 16.52270508 15.84619141 C16.51604324 15.05121246 16.50938141 14.25623352 16.5025177 13.43716431 C16.62156967 12.7940329 16.74062164 12.15090149 16.86328125 11.48828125 C20.49523621 9.06697794 22.24677473 9.2780534 26.55078125 9.36328125 C27.73027344 9.38132813 28.90976563 9.399375 30.125 9.41796875 C31.48044922 9.45277344 31.48044922 9.45277344 32.86328125 9.48828125 C32.86328125 7.83828125 32.86328125 6.18828125 32.86328125 4.48828125 C19.33328125 4.81828125 5.80328125 5.14828125 -8.13671875 5.48828125 C-8.46671875 6.80828125 -8.79671875 8.12828125 -9.13671875 9.48828125 C-7.65558594 9.56175781 -7.65558594 9.56175781 -6.14453125 9.63671875 C-4.86320312 9.71148437 -3.581875 9.78625 -2.26171875 9.86328125 C-0.98554687 9.93289062 0.290625 10.0025 1.60546875 10.07421875 C4.86328125 10.48828125 4.86328125 10.48828125 6.86328125 12.48828125 C7.10379028 14.39920044 7.10379028 14.39920044 7.09033203 16.75439453 C7.09018097 17.63515656 7.09002991 18.51591858 7.08987427 19.42337036 C7.0795517 20.37549408 7.06922913 21.3276178 7.05859375 22.30859375 C7.05576385 23.28238983 7.05293396 24.25618591 7.05001831 25.25949097 C7.03880038 28.37754474 7.01369295 31.49531393 6.98828125 34.61328125 C6.97825353 36.72395419 6.96912732 38.83463163 6.9609375 40.9453125 C6.93885583 46.1263996 6.90536254 51.3073201 6.86328125 56.48828125 C6.20328125 56.15828125 5.54328125 55.82828125 4.86328125 55.48828125 C4.86328125 41.62828125 4.86328125 27.76828125 4.86328125 13.48828125 C-0.41671875 13.15828125 -5.69671875 12.82828125 -11.13671875 12.48828125 C-13.13671875 5.48828125 -13.13671875 5.48828125 -12.39526367 2.58129883 C-8.72668495 -0.81841205 -4.81566971 -0.12827269 0 0 Z " fill="#C8672D" transform="translate(78.13671875,224.51171875)"/>
<path d="M0 0 C0.33 0 0.66 0 1 0 C1.33 5.61 1.66 11.22 2 17 C3.98 16.34 5.96 15.68 8 15 C10.5546875 14.8046875 10.5546875 14.8046875 12.875 14.875 C13.65617187 14.89304688 14.43734375 14.91109375 15.2421875 14.9296875 C15.82226562 14.95289063 16.40234375 14.97609375 17 15 C17 15.33 17 15.66 17 16 C15.35 16.33 13.7 16.66 12 17 C15.73536492 17.25781778 15.73536492 17.25781778 17.9375 16.1875 C20 16 20 16 22.8125 18.0625 C25 21 25 21 24.8125 24.3125 C24.544375 25.199375 24.27625 26.08625 24 27 C24.66 26.67 25.32 26.34 26 26 C26 27.65 26 29.3 26 31 C25.34 31.33 24.68 31.66 24 32 C24.33 32.99 24.66 33.98 25 35 C24.54451823 37.73812607 23.74685247 40.3201176 23 43 C22.01 43 21.02 43 20 43 C19.7525 43.61875 19.505 44.2375 19.25 44.875 C17.7301188 47.45879805 16.76757105 47.92372237 14 49 C11.421875 49.1953125 11.421875 49.1953125 8.75 49.125 C7.41195313 49.09792969 7.41195313 49.09792969 6.046875 49.0703125 C5.37140625 49.04710937 4.6959375 49.02390625 4 49 C3.70222656 48.3709375 3.40445312 47.741875 3.09765625 47.09375 C2.11661494 44.95313933 2.11661494 44.95313933 0.4375 43.5 C-2.46281216 40.47358731 -2.11984466 36.57203853 -2.09765625 32.578125 C-2.09443359 31.55332031 -2.09121094 30.52851563 -2.08789062 29.47265625 C-2.07951172 28.40917969 -2.07113281 27.34570312 -2.0625 26.25 C-2.05798828 25.17105469 -2.05347656 24.09210938 -2.04882812 22.98046875 C-2.03705727 20.32025617 -2.02061399 17.66015635 -2 15 C-1.67 15 -1.34 15 -1 15 C-0.67 10.05 -0.34 5.1 0 0 Z M2 29 C0.14488539 32.71022922 0.55357895 36.95032335 1 41 C2.98929797 44.8194521 4.44541103 45.75351601 8.375 47.5 C12.7503483 48.10349632 14.3865821 47.46369402 18 45 C20.18270693 43.10832066 20.87657691 41.79844075 21.31640625 38.953125 C21.60105739 33.48047726 20.64682874 30.29038676 17 26 C11.28127892 23.14063946 6.22229913 24.64975241 2 29 Z " fill="#F36F1E" transform="translate(304,225)"/>
<path d="M0 0 C0.66 0.33 1.32 0.66 2 1 C1.34 1.61875 0.68 2.2375 0 2.875 C-2.79746198 7.24603435 -2.81461051 10.93777754 -2 16 C-0.06772186 19.6416011 1.02202535 20.68788043 4.9375 21.9375 C9.16541994 22.02378408 11.61314154 21.19556764 14.8125 18.4375 C16.65779123 14.64979695 16.65821077 11.1294065 16 7 C14.89940813 4.3890721 13.60723318 2.36062374 12 0 C14.31374476 0.9254979 15.71780469 1.57818192 17.12109375 3.67578125 C18.26321489 6.69605716 18.22848699 9.21443232 18.1875 12.4375 C18.18105469 13.54996094 18.17460937 14.66242188 18.16796875 15.80859375 C17.77777778 23.22222222 17.77777778 23.22222222 15 26 C15 25.34 15 24.68 15 24 C13.35 23.67 11.7 23.34 10 23 C10 23.66 10 24.32 10 25 C7.69 25 5.38 25 3 25 C3 25.66 3 26.32 3 27 C1.68 27 0.36 27 -1 27 C-0.67 27.99 -0.34 28.98 0 30 C2.88415883 31.44207941 5.41721528 31.09394887 8.625 31.0625 C10.40777344 31.04896484 10.40777344 31.04896484 12.2265625 31.03515625 C13.59941406 31.01775391 13.59941406 31.01775391 15 31 C15 30.34 15 29.68 15 29 C16.98 28.67 18.96 28.34 21 28 C17.9722415 31.50582564 14.74164176 32.79340525 10.16796875 33.3359375 C1.51220744 33.44938129 -4.00670341 31.98685284 -10.375 26.0625 C-14.61112294 21.4590168 -15.94483576 16.22252646 -16 10 C-15.52948212 6.93925743 -14.83484731 3.98061188 -14 1 C-13.34 1.33 -12.68 1.66 -12 2 C-12 2.99 -12 3.98 -12 5 C-12.66 5 -13.32 5 -14 5 C-14 8.96 -14 12.92 -14 17 C-12.68 17.33 -11.36 17.66 -10 18 C-9.67 19.98 -9.34 21.96 -9 24 C-8.34 23.67 -7.68 23.34 -7 23 C-6.93941406 21.79601562 -6.87882813 20.59203125 -6.81640625 19.3515625 C-6.73200268 17.77602923 -6.64735459 16.20050904 -6.5625 14.625 C-6.50352539 13.43390625 -6.50352539 13.43390625 -6.44335938 12.21875 C-6.11328125 6.2265625 -6.11328125 6.2265625 -5 4 C-4.01 4 -3.02 4 -2 4 C-1.34 2.68 -0.68 1.36 0 0 Z " fill="#E0702B" transform="translate(260,250)"/>
<path d="M0 0 C2.97 0 5.94 0 9 0 C9.33 1.32 9.66 2.64 10 4 C8.68 4.33 7.36 4.66 6 5 C6 4.34 6 3.68 6 3 C4.68 3 3.36 3 2 3 C2.33 4.11375 2.66 5.2275 3 6.375 C4.76220102 14.08152699 4.15249489 22.14651309 4 30 C3.01 30.33 2.02 30.66 1 31 C1 38.92 1 46.84 1 55 C3.97 55 6.94 55 10 55 C10 48.73 10 42.46 10 36 C11.485 35.505 11.485 35.505 13 35 C13.4125 35.474375 13.825 35.94875 14.25 36.4375 C16.182185 38.16266518 17.48192275 38.56584875 20 39 C20 38.34 20 37.68 20 37 C20.60328125 37.10699219 21.2065625 37.21398437 21.828125 37.32421875 C26.75811523 38.18934844 26.75811523 38.18934844 31.375 36.75 C32.4182659 35.62648288 33.46006267 34.50159877 34.5 33.375 C36.27668702 31.74637023 37.65317496 31.40462501 40 31 C38.37719935 36.31098394 35.53643465 38.55060877 30.8125 41.25 C23.79451794 43.12146188 18.34805591 42.50205704 12 39 C11.93941406 40.21558594 11.87882813 41.43117188 11.81640625 42.68359375 C11.73201668 44.26824228 11.6473679 45.85287702 11.5625 47.4375 C11.50352539 48.64116211 11.50352539 48.64116211 11.44335938 49.86914062 C11.11328125 55.88671875 11.11328125 55.88671875 10 57 C6.7 57 3.4 57 0 57 C0 38.19 0 19.38 0 0 Z " fill="#F1792F" transform="translate(154,241)"/>
<path d="M0 0 C1.65322266 0.01740234 1.65322266 0.01740234 3.33984375 0.03515625 C4.44457031 0.04417969 5.54929688 0.05320313 6.6875 0.0625 C7.54214844 0.07410156 8.39679688 0.08570313 9.27734375 0.09765625 C9.27734375 8.09765625 9.27734375 8.09765625 8.27734375 11.09765625 C7.94734375 10.76765625 7.61734375 10.43765625 7.27734375 10.09765625 C3.05243699 9.65202714 -0.56720677 9.42129558 -4.28515625 11.59765625 C-4.75953125 12.09265625 -5.23390625 12.58765625 -5.72265625 13.09765625 C-8.72265625 9.47265625 -8.72265625 9.47265625 -8.72265625 6.09765625 C-11.69265625 5.60265625 -11.69265625 5.60265625 -14.72265625 5.09765625 C-13.73265625 6.58265625 -13.73265625 6.58265625 -12.72265625 8.09765625 C-12.59765625 11.28515625 -12.59765625 11.28515625 -12.72265625 14.09765625 C-13.05265625 14.09765625 -13.38265625 14.09765625 -13.72265625 14.09765625 C-13.89846351 19.34208729 -13.89846351 19.34208729 -13.09765625 24.47265625 C-12.97390625 25.00890625 -12.85015625 25.54515625 -12.72265625 26.09765625 C-13.38265625 26.75765625 -14.04265625 27.41765625 -14.72265625 28.09765625 C-15.18662318 30.98989128 -15.18662318 30.98989128 -15.34765625 34.22265625 C-15.42242187 35.31835938 -15.4971875 36.4140625 -15.57421875 37.54296875 C-15.64769531 38.80753906 -15.64769531 38.80753906 -15.72265625 40.09765625 C-16.05265625 40.09765625 -16.38265625 40.09765625 -16.72265625 40.09765625 C-16.74736813 35.02563839 -16.76552189 29.95365554 -16.77758789 24.8815918 C-16.78261783 23.15599965 -16.78944251 21.43041177 -16.7980957 19.70483398 C-16.81021986 17.22508695 -16.81589794 14.74539625 -16.8203125 12.265625 C-16.82805443 11.1076667 -16.82805443 11.1076667 -16.83595276 9.92631531 C-16.83628943 6.71463345 -16.74592203 4.16745359 -15.72265625 1.09765625 C-14.44068359 1.11505859 -14.44068359 1.11505859 -13.1328125 1.1328125 C-11.47572266 1.14634766 -11.47572266 1.14634766 -9.78515625 1.16015625 C-8.13193359 1.17755859 -8.13193359 1.17755859 -6.4453125 1.1953125 C-3.26931859 1.08139593 -3.17599391 0.11391657 0 0 Z " fill="#ED742A" transform="translate(218.72265625,239.90234375)"/>
<path d="M0 0 C0.66 0 1.32 0 2 0 C2.309375 0.804375 2.61875 1.60875 2.9375 2.4375 C3.76335345 4.89080405 3.76335345 4.89080405 5 6 C5.08767112 8.07262076 5.10695873 10.14820294 5.09765625 12.22265625 C5.09443359 13.48271484 5.09121094 14.74277344 5.08789062 16.04101562 C5.07953403 17.38151109 5.07106907 18.72200588 5.0625 20.0625 C5.0574866 21.40689942 5.05292342 22.7513006 5.04882812 24.09570312 C5.03699488 27.39717941 5.02050971 30.69856803 5 34 C2.03 34 -0.94 34 -4 34 C-4 25.75 -4 17.5 -4 9 C-3.34 9 -2.68 9 -2 9 C-1.7834375 7.88625 -1.7834375 7.88625 -1.5625 6.75 C-1.09812508 4.47972261 -0.58136431 2.24240521 0 0 Z " fill="#F67222" transform="translate(234,247)"/>
<path d="M0 0 C1.21386936 3.64160808 0.6674695 4.33165469 -0.9375 7.6875 C-1.31777344 8.49574219 -1.69804687 9.30398437 -2.08984375 10.13671875 C-2.39019531 10.75160156 -2.69054687 11.36648437 -3 12 C3.90403641 10.20603778 10.6487432 8.15950142 17.37109375 5.76953125 C20 5 20 5 24 5 C24.76171875 7.140625 24.76171875 7.140625 25 10 C23.33203125 12.734375 23.33203125 12.734375 20.8125 15.75 C19.88698238 16.8837549 18.96529488 18.02064409 18.046875 19.16015625 C17.55380859 19.77004395 17.06074219 20.37993164 16.55273438 21.00830078 C13.17750061 25.33772799 10.12044675 29.90709533 7.0246582 34.43847656 C6.54343506 35.13295898 6.06221191 35.82744141 5.56640625 36.54296875 C5.14302979 37.16196045 4.71965332 37.78095215 4.28344727 38.41870117 C3 40 3 40 0 42 C0.309375 41.484375 0.61875 40.96875 0.9375 40.4375 C2.18975067 37.91399152 2.18975067 37.91399152 2.3125 34.5625 C3.15396759 30.20216796 4.72042655 28.87962547 8 26 C8.66 25.01 9.32 24.02 10 23 C10.66 22.67 11.32 22.34 12 22 C12.65555119 19.47266765 12.65555119 19.47266765 13 17 C13.66 17 14.32 17 15 17 C14.34 15.35 13.68 13.7 13 12 C13.99 12 14.98 12 16 12 C15.67 11.67 15.34 11.34 15 11 C10.42259638 11.59480386 5.97459841 12.65708574 1.625 14.1875 C-1.12407037 15.03840273 -2.35219483 15.01838661 -5 14 C-5.23509196 9.18061476 -4.45184478 5.53701494 -3 1 C-2.01 1.33 -1.02 1.66 0 2 C0 1.34 0 0.68 0 0 Z " fill="#F27128" transform="translate(208,128)"/>
<path d="M0 0 C1.10021484 -0.0299707 1.10021484 -0.0299707 2.22265625 -0.06054688 C7.55662178 -0.05577589 10.33510273 1.1095362 14.5 4.4375 C13.18 4.7675 11.86 5.0975 10.5 5.4375 C10.17 4.4475 9.84 3.4575 9.5 2.4375 C8.51 2.7675 7.52 3.0975 6.5 3.4375 C6.5 2.7775 6.5 2.1175 6.5 1.4375 C1.55 1.7675 -3.4 2.0975 -8.5 2.4375 C-8.83 3.4275 -9.16 4.4175 -9.5 5.4375 C-10.469375 5.685 -11.43875 5.9325 -12.4375 6.1875 C-13.448125 6.6 -14.45875 7.0125 -15.5 7.4375 C-16.96022435 10.96201159 -16.96022435 10.96201159 -17.5 14.4375 C-12.09212615 13.33963575 -12.09212615 13.33963575 -8.5 9.4375 C-5.79437257 8.08468629 -3.58106345 8.23140638 -0.5625 8.1875 C1.02884766 8.14882812 1.02884766 8.14882812 2.65234375 8.109375 C5.5 8.4375 5.5 8.4375 7.3671875 9.75390625 C9.06132977 12.27175217 8.69668041 14.4872939 8.5 17.4375 C7.51 17.7675 6.52 18.0975 5.5 18.4375 C5.5 19.0975 5.5 19.7575 5.5 20.4375 C3.52 21.4275 3.52 21.4275 1.5 22.4375 C1.17 22.1075 0.84 21.7775 0.5 21.4375 C-1.2465759 21.31148865 -2.9989234 21.26170506 -4.75 21.25 C-5.70390625 21.23582031 -6.6578125 21.22164063 -7.640625 21.20703125 C-11.52453893 21.52007896 -14.39816192 22.44964517 -17.3125 25.0625 C-19.37495799 29.18741598 -18.8873951 33.50052449 -18 37.9375 C-17.835 38.4325 -17.67 38.9275 -17.5 39.4375 C-19.76716469 37.6631972 -20.49092824 36.46601124 -21.375 33.6875 C-21.55749762 28.94256197 -19.98066735 25.38928879 -17.125 21.625 C-12.80680917 18.46939901 -7.86822938 17.91733156 -2.6875 17.3125 C-1.99462891 17.22613281 -1.30175781 17.13976562 -0.58789062 17.05078125 C1.10733706 16.84033919 2.80357755 16.63808328 4.5 16.4375 C4.83 15.4475 5.16 14.4575 5.5 13.4375 C4.70497806 11.32687692 4.70497806 11.32687692 2.875 10.6875 C-0.65300849 10.31613068 -3.20934329 11.18106744 -6.5 12.4375 C-6.95375 13.13875 -7.4075 13.84 -7.875 14.5625 C-9.5 16.4375 -9.5 16.4375 -11.640625 16.73046875 C-13.96021471 16.74870452 -16.1969519 16.71735246 -18.5 16.4375 C-19.5 15.4375 -19.5 15.4375 -19.875 12.75 C-19.40066439 8.56003542 -17.67559822 6.07398504 -14.5 3.4375 C-9.57626738 0.37287586 -5.62787477 -0.05439949 0 0 Z " fill="#BB6838" transform="translate(128.5,238.5625)"/>
<path d="M0 0 C0.33 0 0.66 0 1 0 C1.07347656 1.17369141 1.07347656 1.17369141 1.1484375 2.37109375 C1.22320312 3.38300781 1.29796875 4.39492187 1.375 5.4375 C1.44460937 6.44683594 1.51421875 7.45617187 1.5859375 8.49609375 C1.72257813 9.32238281 1.85921875 10.14867188 2 11 C4.30878581 12.1543929 5.59214988 12.11542283 8.15844727 12.09765625 C9.01596085 12.09435303 9.87347443 12.0910498 10.75697327 12.08764648 C11.68408615 12.07934814 12.61119904 12.0710498 13.56640625 12.0625 C14.51563461 12.05871338 15.46486298 12.05492676 16.44285583 12.05102539 C19.48278256 12.03877776 22.52261593 12.0201428 25.5625 12 C29.5637994 11.97353263 33.56505279 11.95347813 37.56640625 11.9375 C38.49554337 11.92920166 39.42468048 11.92090332 40.38197327 11.91235352 C41.23633469 11.90905029 42.09069611 11.90574707 42.97094727 11.90234375 C43.72658463 11.89710693 44.48222198 11.89187012 45.26075745 11.88647461 C47 12 47 12 48 13 C48.2094361 14.97509873 48.36803822 16.95571682 48.5 18.9375 C48.67735084 23.12167415 48.67735084 23.12167415 50 27 C49.278125 28.051875 48.55625 29.10375 47.8125 30.1875 C43.84522649 36.16057381 42.60640999 43.10769345 41 50 C40.67 50 40.34 50 40 50 C40.70969425 42.37282622 42.07852959 34.94880122 43.5625 27.4375 C43.79646484 26.23802734 44.03042969 25.03855469 44.27148438 23.80273438 C44.84443147 20.8678421 45.42067727 17.93363922 46 15 C44.71834961 15.01571045 43.43669922 15.0314209 42.11621094 15.04760742 C37.36025275 15.10191556 32.60432198 15.13635342 27.84814453 15.16479492 C25.78982941 15.1798795 23.73154642 15.20034987 21.67333984 15.22631836 C18.71443756 15.26271585 15.75596033 15.27972966 12.796875 15.29296875 C11.41698395 15.31619453 11.41698395 15.31619453 10.00921631 15.33988953 C3.67737295 15.3415567 3.67737295 15.3415567 0.40722656 13.69262695 C-1.88025524 10.94121971 -1.2971879 8.44737967 -1 5 C-0.71479595 3.32442621 -0.40044304 1.65182755 0 0 Z " fill="#CB6F3A" transform="translate(131,101)"/>
<path d="M0 0 C14.85 0 29.7 0 45 0 C47.34210526 8.19736842 47.34210526 8.19736842 46 12 C40.92281793 14.53859104 34.67646212 13 29 13 C28.67 27.19 28.34 41.38 28 56 C27.67 56 27.34 56 27 56 C27 41.15 27 26.3 27 11 C32.94 11 38.88 11 45 11 C44.505 7.04 44.505 7.04 44 3 C29.15 2.67 14.3 2.34 -1 2 C-0.67 1.34 -0.34 0.68 0 0 Z " fill="#AF6131" transform="translate(68,225)"/>
<path d="M0 0 C4.11037838 3.60492582 6.96651736 8.32533332 8.68359375 13.4765625 C8.80328805 15.66167938 8.85886828 17.85070397 8.87109375 20.0390625 C8.88527344 21.19535156 8.89945312 22.35164063 8.9140625 23.54296875 C8.68359375 26.4765625 8.68359375 26.4765625 6.68359375 28.4765625 C6.75320313 27.57035156 6.8228125 26.66414063 6.89453125 25.73046875 C7.2764157 17.13806867 6.50900668 11.93582865 0.68359375 5.4765625 C-1.45495475 3.338014 -2.44915939 3.05001187 -5.31640625 2.4765625 C-5.64640625 3.1365625 -5.97640625 3.7965625 -6.31640625 4.4765625 C-6.64640625 3.4865625 -6.97640625 2.4965625 -7.31640625 1.4765625 C-9.95640625 1.1465625 -12.59640625 0.8165625 -15.31640625 0.4765625 C-15.64640625 1.4665625 -15.97640625 2.4565625 -16.31640625 3.4765625 C-17.30640625 2.4865625 -18.29640625 1.4965625 -19.31640625 0.4765625 C-21.95640625 1.4665625 -24.59640625 2.4565625 -27.31640625 3.4765625 C-26.98640625 4.1365625 -26.65640625 4.7965625 -26.31640625 5.4765625 C-26.31640625 6.4665625 -26.31640625 7.4565625 -26.31640625 8.4765625 C-27.30640625 8.9715625 -27.30640625 8.9715625 -28.31640625 9.4765625 C-28.31640625 8.8165625 -28.31640625 8.1565625 -28.31640625 7.4765625 C-29.96640625 8.1365625 -31.61640625 8.7965625 -33.31640625 9.4765625 C-31.23536737 4.79422502 -28.81731228 1.42278586 -24.44140625 -1.3359375 C-17.07375373 -4.10477452 -6.84605457 -4.09291005 0 0 Z " fill="#CE7137" transform="translate(280.31640625,241.5234375)"/>
<path d="M0 0 C3.15182809 0.21097429 6.06080772 0.844949 9 2 C11.4375 5.0625 11.4375 5.0625 13 8 C13.66 8.33 14.32 8.66 15 9 C16.1276175 12.05199467 15.98480237 14.55927102 15.5625 17.75 C15.46066406 18.54921875 15.35882813 19.3484375 15.25390625 20.171875 C15.12822266 21.07679688 15.12822266 21.07679688 15 22 C13.68 22.33 12.36 22.66 11 23 C9.8125 21.3125 9.8125 21.3125 9 19 C10.375 16.25 10.375 16.25 12 14 C11.01 14 10.02 14 9 14 C8.140625 12.3203125 8.140625 12.3203125 7.25 10.125 C6.08301148 7.80386828 6.08301148 7.80386828 4 6 C-0.98342027 4.6703788 -5.86099124 4.25856648 -11 4 C-10.67 3.01 -10.34 2.02 -10 1 C-9.36191406 1.01160156 -8.72382813 1.02320313 -8.06640625 1.03515625 C-7.24011719 1.04417969 -6.41382813 1.05320313 -5.5625 1.0625 C-4.32693359 1.07990234 -4.32693359 1.07990234 -3.06640625 1.09765625 C-1.00836062 1.23267348 -1.00836062 1.23267348 0 0 Z " fill="#F76E18" transform="translate(178,242)"/>
<path d="M0 0 C0.66 0.33 1.32 0.66 2 1 C2 2.32 2 3.64 2 5 C2.99 5.33 3.98 5.66 5 6 C6.44207941 8.88415883 6.09394887 11.41721528 6.0625 14.625 C6.05347656 15.81351562 6.04445313 17.00203125 6.03515625 18.2265625 C6.02355469 19.14179688 6.01195312 20.05703125 6 21 C5.01 21.33 4.02 21.66 3 22 C3.061875 23.1446875 3.061875 23.1446875 3.125 24.3125 C3 27 3 27 1 30 C0.01 30 -0.98 30 -2 30 C-2.33 29.01 -2.66 28.02 -3 27 C-2.01 27 -1.02 27 0 27 C-0.33 25.68 -0.66 24.36 -1 23 C-1.66 23 -2.32 23 -3 23 C-2.855625 22.16855469 -2.71125 21.33710938 -2.5625 20.48046875 C-2.376875 19.39378906 -2.19125 18.30710937 -2 17.1875 C-1.814375 16.10855469 -1.62875 15.02960938 -1.4375 13.91796875 C-0.92586214 10.99729102 -0.92586214 10.99729102 -1 8 C-0.34 8.33 0.32 8.66 1 9 C0.67 7.68 0.34 6.36 0 5 C-0.99 5.495 -0.99 5.495 -2 6 C-1.34 4.02 -0.68 2.04 0 0 Z " fill="#F86E18" transform="translate(329,247)"/>
<path d="M0 0 C0.495 0.99 0.495 0.99 1 2 C-2.51571964 6.79416314 -5.11116157 9.26230997 -11 11 C-17.33020367 11.72345185 -21.35246982 11.09835473 -27 8 C-27.06058594 9.21558594 -27.12117187 10.43117188 -27.18359375 11.68359375 C-27.26798332 13.26824228 -27.3526321 14.85287702 -27.4375 16.4375 C-27.49647461 17.64116211 -27.49647461 17.64116211 -27.55664062 18.86914062 C-27.88671875 24.88671875 -27.88671875 24.88671875 -29 26 C-30.68608966 26.07205511 -32.37500659 26.08386068 -34.0625 26.0625 C-34.98160156 26.05347656 -35.90070313 26.04445313 -36.84765625 26.03515625 C-37.55792969 26.02355469 -38.26820313 26.01195312 -39 26 C-39 25.67 -39 25.34 -39 25 C-36.03 24.67 -33.06 24.34 -30 24 C-29.67 17.73 -29.34 11.46 -29 5 C-28.01 4.67 -27.02 4.34 -26 4 C-25.38125 4.7115625 -25.38125 4.7115625 -24.75 5.4375 C-22.817815 7.16266518 -21.51807725 7.56584875 -19 8 C-19 7.34 -19 6.68 -19 6 C-18.39671875 6.10699219 -17.7934375 6.21398437 -17.171875 6.32421875 C-12.24188477 7.18934844 -12.24188477 7.18934844 -7.625 5.75 C-6.820625 4.88375 -6.820625 4.88375 -6 4 C-3.81944676 1.73222464 -3.1098709 1.03662363 0 0 Z " fill="#C96F34" transform="translate(193,272)"/>
<path d="M0 0 C1.21386936 3.64160808 0.6674695 4.33165469 -0.9375 7.6875 C-1.31777344 8.49574219 -1.69804687 9.30398437 -2.08984375 10.13671875 C-2.39019531 10.75160156 -2.69054687 11.36648437 -3 12 C3.90403641 10.20603778 10.6487432 8.15950142 17.37109375 5.76953125 C20 5 20 5 24 5 C24.71484375 7.19921875 24.71484375 7.19921875 25 10 C23.56640625 12.45703125 23.56640625 12.45703125 21.5625 14.8125 C20.57443359 15.99779297 20.57443359 15.99779297 19.56640625 17.20703125 C19.04949219 17.79871094 18.53257812 18.39039063 18 19 C17.67 17.68 17.34 16.36 17 15 C17.99 14.34 18.98 13.68 20 13 C20.72965366 10.43717258 20.72965366 10.43717258 21 8 C18.45810688 8.79094536 15.91648159 9.58273429 13.375 10.375 C12.66214844 10.59671875 11.94929688 10.8184375 11.21484375 11.046875 C10.16103516 11.37558594 10.16103516 11.37558594 9.0859375 11.7109375 C8.39290527 11.92669434 7.69987305 12.14245117 6.98583984 12.36474609 C5.18816329 12.9398081 3.40542243 13.56105507 1.625 14.1875 C-1.12407037 15.03840273 -2.35219483 15.01838661 -5 14 C-5.23509196 9.18061476 -4.45184478 5.53701494 -3 1 C-2.01 1.33 -1.02 1.66 0 2 C0 1.34 0 0.68 0 0 Z " fill="#CE6D37" transform="translate(208,128)"/>
<path d="M0 0 C0.33 0 0.66 0 1 0 C0.49020579 5.50577746 -0.60961583 10.36532152 -2.37890625 15.60546875 C-3.04200882 18.16195855 -3.10742952 20.37031225 -3 23 C-2.34 23.33 -1.68 23.66 -1 24 C-0.67 22.68 -0.34 21.36 0 20 C0.99 20 1.98 20 3 20 C2.67 19.01 2.34 18.02 2 17 C2.66 17 3.32 17 4 17 C4 15.68 4 14.36 4 13 C5.98 12.34 7.96 11.68 10 11 C8.57523475 15.0813588 6.58663399 18.17298478 4 21.625 C1.93950544 24.39000188 -0.08689899 27.13034848 -2 30 C-4.625 30.1875 -4.625 30.1875 -7 30 C-8.41265059 26.20625282 -7.5530586 23.7049839 -6.34765625 19.921875 C-5.98349609 18.76171875 -5.61933594 17.6015625 -5.24414062 16.40625 C-4.85419922 15.1996875 -4.46425781 13.993125 -4.0625 12.75 C-3.67642578 11.52796875 -3.29035156 10.3059375 -2.89257812 9.046875 C-1.93746142 6.02823456 -0.9729636 3.012926 0 0 Z " fill="#BE6938" transform="translate(184,179)"/>
<path d="M0 0 C0.93065133 2.60582371 1.14917407 3.64198224 0.0625 6.25 C-0.4634375 7.11625 -0.4634375 7.11625 -1 8 C-1.66 8 -2.32 8 -3 8 C-3.33 8.99 -3.66 9.98 -4 11 C-5.64142963 12.0409066 -7.30712215 13.04504326 -9 14 C-9 14.33 -9 14.66 -9 15 C-12.94727588 15.17942163 -15.5980513 15.09350689 -19 13 C-19 13.66 -19 14.32 -19 15 C-21.4375 14.625 -21.4375 14.625 -24 14 C-24.33 13.34 -24.66 12.68 -25 12 C-24.21496094 11.80664062 -23.42992187 11.61328125 -22.62109375 11.4140625 C-20.45363915 10.87685289 -18.2883294 10.33093158 -16.125 9.77734375 C-14.34273978 9.33400652 -12.55339214 8.91393494 -10.75 8.56640625 C-8.70671835 8.19510612 -8.70671835 8.19510612 -6 7 C-4.00574976 4.01565163 -4.00574976 4.01565163 -3 1 C-2.34 1.33 -1.68 1.66 -1 2 C-0.67 1.34 -0.34 0.68 0 0 Z " fill="#F46E18" transform="translate(193,265)"/>
<path d="M0 0 C1.07765625 0.00902344 2.1553125 0.01804688 3.265625 0.02734375 C4.08546875 0.03894531 4.9053125 0.05054688 5.75 0.0625 C5.75 8.0625 5.75 8.0625 4.75 11.0625 C3.12061226 10.47026866 1.49658872 9.86326372 -0.125 9.25 C-1.02992188 8.91355469 -1.93484375 8.57710937 -2.8671875 8.23046875 C-5.25 7.0625 -5.25 7.0625 -7.25 4.0625 C-7.58 4.7225 -7.91 5.3825 -8.25 6.0625 C-8.91 6.0625 -9.57 6.0625 -10.25 6.0625 C-10.25 4.4125 -10.25 2.7625 -10.25 1.0625 C-6.78777385 -0.00473961 -3.60960734 -0.03923486 0 0 Z " fill="#F57124" transform="translate(222.25,239.9375)"/>
<path d="M0 0 C2.2477975 2.05233685 3.0022242 3.00667261 4 6 C4.09548601 8.26013584 4.13073536 10.52300522 4.1328125 12.78515625 C4.13376923 13.44204941 4.13472595 14.09894257 4.13571167 14.77574158 C4.13639113 16.16177466 4.13455314 17.54781095 4.13037109 18.93383789 C4.12501091 21.05817783 4.1303283 23.18230717 4.13671875 25.30664062 C4.13605809 26.6536463 4.13477719 28.00065185 4.1328125 29.34765625 C4.13168457 30.57492432 4.13055664 31.80219238 4.12939453 33.06665039 C4 36 4 36 3 38 C0.03 37.67 -2.94 37.34 -6 37 C-6 36.01 -6 35.02 -6 34 C-4.35 33.34 -2.7 32.68 -1 32 C-1 32.66 -1 33.32 -1 34 C-0.01 34 0.98 34 2 34 C1.88201056 30.03047101 1.75778201 26.06119219 1.62768555 22.09204102 C1.58428777 20.74085853 1.5426163 19.38961947 1.50268555 18.03833008 C1.44510048 16.09963299 1.38085702 14.16113724 1.31640625 12.22265625 C1.27974854 11.05484619 1.24309082 9.88703613 1.20532227 8.68383789 C1.29923812 6.08220205 1.29923812 6.08220205 0 5 C-0.04063832 3.33382885 -0.042721 1.66611905 0 0 Z " fill="#F3823C" transform="translate(143,244)"/>
<path d="M0 0 C2.51892678 0.8039128 4.70374774 1.53106339 6.9375 2.9375 C7.2675 3.5975 7.5975 4.2575 7.9375 4.9375 C7.27363281 4.87949219 6.60976563 4.82148438 5.92578125 4.76171875 C1.4439755 4.53272138 -1.26805753 4.46083452 -5.1875 6.8125 C-7.82606994 11.21011657 -8.08964379 14.93325546 -7.0625 19.9375 C-4.80319697 23.10052424 -3.19385959 24.47335248 0.375 25.9375 C3.84303561 25.9375 5.9679195 24.65325762 8.9375 22.9375 C9.5975 22.6075 10.2575 22.2775 10.9375 21.9375 C9.9922226 24.30069349 9.35746722 25.66752108 7.1875 27.0625 C4.53488096 28.09407407 2.52395051 28.13714343 -0.3125 28.0625 C-1.20453125 28.04445313 -2.0965625 28.02640625 -3.015625 28.0078125 C-3.69109375 27.98460937 -4.3665625 27.96140625 -5.0625 27.9375 C-5.330625 27.339375 -5.59875 26.74125 -5.875 26.125 C-6.8975002 23.88376512 -6.8975002 23.88376512 -8.71875 22.6796875 C-10.60483623 20.23435477 -10.1917466 18.19411553 -9.859375 15.23046875 C-9.76140625 14.51503906 -9.6634375 13.79960937 -9.5625 13.0625 C-9.49546875 12.35480469 -9.4284375 11.64710938 -9.359375 10.91796875 C-8.85532959 6.93749252 -8.23847317 5.15811027 -5.66015625 1.92578125 C-3.0625 -0.0625 -3.0625 -0.0625 0 0 Z " fill="#CA6C31" transform="translate(313.0625,246.0625)"/>
<path d="M0 0 C1.64574566 -0.02688151 3.29161413 -0.04634123 4.9375 -0.0625 C5.85402344 -0.07410156 6.77054688 -0.08570312 7.71484375 -0.09765625 C10 0 10 0 11 1 C11.2094361 2.97509873 11.36803822 4.95571682 11.5 6.9375 C11.67735084 11.12167415 11.67735084 11.12167415 13 15 C12.278125 16.051875 11.55625 17.10375 10.8125 18.1875 C6.84522649 24.16057381 5.60640999 31.10769345 4 38 C3.67 38 3.34 38 3 38 C3.70969425 30.37282622 5.07852959 22.94880122 6.5625 15.4375 C6.79646484 14.23802734 7.03042969 13.03855469 7.27148438 11.80273438 C7.84443147 8.8678421 8.42067727 5.93363922 9 3 C8.01 3 7.02 3 6 3 C6 2.34 6 1.68 6 1 C4.02 1 2.04 1 0 1 C0 0.67 0 0.34 0 0 Z " fill="#D56B2D" transform="translate(168,113)"/>
<path d="M0 0 C0.33 0 0.66 0 1 0 C1.33 5.61 1.66 11.22 2 17 C2.66 17.33 3.32 17.66 4 18 C4 18.66 4 19.32 4 20 C4.66 20.33 5.32 20.66 6 21 C4.25 24.875 4.25 24.875 2 26 C1.30772968 28.80980673 1.30772968 28.80980673 0.875 32.0625 C0.70742188 33.16722656 0.53984375 34.27195312 0.3671875 35.41015625 C0.24601562 36.26480469 0.12484375 37.11945313 0 38 C-0.66 38 -1.32 38 -2 38 C-2 30.41 -2 22.82 -2 15 C-1.67 15 -1.34 15 -1 15 C-0.67 10.05 -0.34 5.1 0 0 Z " fill="#E16C25" transform="translate(304,225)"/>
<path d="M0 0 C0.33 0 0.66 0 1 0 C0.42978066 5.3503559 -0.20734361 10.67787852 -1 16 C-0.0925 15.505 0.815 15.01 1.75 14.5 C5 13 5 13 9 13 C9 12.34 9 11.68 9 11 C12.63 11 16.26 11 20 11 C19.67 12.32 19.34 13.64 19 15 C19 14.01 19 13.02 19 12 C18.34773438 12.26554688 17.69546875 12.53109375 17.0234375 12.8046875 C3.08860977 18.43616655 3.08860977 18.43616655 -2 18 C-2.33 17.67 -2.66 17.34 -3 17 C-2.83441026 11.17888361 -1.52509843 5.59202759 0 0 Z " fill="#CF682D" transform="translate(170,151)"/>
<path d="M0 0 C4.15015486 5.52351528 3.78952915 11.36795516 3 18 C1.93516944 20.5721881 0.89864274 21.9233595 -1 24 C-1.66 23.67 -2.32 23.34 -3 23 C-2.01 21.7625 -2.01 21.7625 -1 20.5 C1.49354443 16.72406129 1.85112697 13.41357593 1 9 C-0.37267224 5.48187653 -0.37267224 5.48187653 -3 3 C-7.86238199 1.55929423 -11.41909958 1.81861885 -16 4 C-16.33 4.99 -16.66 5.98 -17 7 C-17.33 5.68 -17.66 4.36 -18 3 C-6.29787234 -2.38297872 -6.29787234 -2.38297872 0 0 Z " fill="#C76A31" transform="translate(183,248)"/>
<path d="M0 0 C1.65 0 3.3 0 5 0 C5.33 1.32 5.66 2.64 6 4 C5.01 4.33 4.02 4.66 3 5 C3.02320313 5.83144531 3.04640625 6.66289062 3.0703125 7.51953125 C3.09738281 9.14955078 3.09738281 9.14955078 3.125 10.8125 C3.14820313 11.89144531 3.17140625 12.97039062 3.1953125 14.08203125 C3 17 3 17 1 20 C0.01 20 -0.98 20 -2 20 C-2.08125282 16.42487611 -1.86120768 13.44483071 -1 10 C-0.7856066 8.25309081 -0.59892347 6.5025977 -0.4375 4.75 C-0.35371094 3.85796875 -0.26992188 2.9659375 -0.18359375 2.046875 C-0.12300781 1.37140625 -0.06242187 0.6959375 0 0 Z " fill="#F96E15" transform="translate(280,257)"/>
<path d="M0 0 C1 2 1 2 1 4 C1.33 4 1.66 4 2 4 C2 5.65 2 7.3 2 9 C1.01 9.495 1.01 9.495 0 10 C0.33 10.99 0.66 11.98 1 13 C0.54451823 15.73812607 -0.25314753 18.3201176 -1 21 C-1.99 21 -2.98 21 -4 21 C-3.96519531 20.27554687 -3.93039062 19.55109375 -3.89453125 18.8046875 C-3.73368051 13.06001832 -3.76533816 8.98677034 -7 4 C-4.525 4.495 -4.525 4.495 -2 5 C-1.34 3.35 -0.68 1.7 0 0 Z " fill="#D76E2C" transform="translate(328,247)"/>
<path d="M0 0 C0.79339783 0.02644089 1.58679565 0.05288177 2.40423584 0.0801239 C4.93172976 0.16771079 7.45775822 0.27691808 9.984375 0.38671875 C11.70046876 0.44999607 13.4166152 0.5118615 15.1328125 0.57226562 C19.33411972 0.72322274 23.53424389 0.89357135 27.734375 1.07421875 C27.734375 1.40421875 27.734375 1.73421875 27.734375 2.07421875 C22.42230252 2.82090598 17.3301611 3.1935566 11.953125 3.171875 C11.25417114 3.17046005 10.55521729 3.1690451 9.83508301 3.16758728 C7.63480071 3.16205545 5.43462577 3.14951652 3.234375 3.13671875 C1.72916815 3.13169491 0.22395968 3.12713357 -1.28125 3.12304688 C-4.94274235 3.11210852 -8.60417317 3.09489234 -12.265625 3.07421875 C-8.5994388 -0.62153347 -4.87271585 -0.23738987 0 0 Z " fill="#ED7225" transform="translate(148.265625,110.92578125)"/>
<path d="M0 0 C2.97 0 5.94 0 9 0 C9 6.6 9 13.2 9 20 C8.67 20 8.34 20 8 20 C8 14.06 8 8.12 8 2 C6.02 2 4.04 2 2 2 C1.67 11.57 1.34 21.14 1 31 C0.67 31 0.34 31 0 31 C0 20.77 0 10.54 0 0 Z " fill="#ED7933" transform="translate(295,225)"/>
<path d="M0 0 C0.66 0 1.32 0 2 0 C2 0.66 2 1.32 2 2 C2.66 2 3.32 2 4 2 C4.33 3.32 4.66 4.64 5 6 C3.25 7.5625 3.25 7.5625 1 9 C-1.25 8.6875 -1.25 8.6875 -3 8 C-3.33 8.66 -3.66 9.32 -4 10 C-5.32 10 -6.64 10 -8 10 C-8.33 9.34 -8.66 8.68 -9 8 C-9.99 7.34 -10.98 6.68 -12 6 C-10.7625 5.7525 -9.525 5.505 -8.25 5.25 C-4.44223364 4.32160467 -2.59593658 2.99531144 0 0 Z " fill="#F67122" transform="translate(324,268)"/>
<path d="M0 0 C-1.65 0.33 -3.3 0.66 -5 1 C-5 1.66 -5 2.32 -5 3 C-6.2065625 3.309375 -6.2065625 3.309375 -7.4375 3.625 C-8.283125 4.07875 -9.12875 4.5325 -10 5 C-10.97855278 8.46257138 -11 11.39210397 -11 15 C-9.02 15 -7.04 15 -5 15 C-4.67 15.66 -4.34 16.32 -4 17 C-4.99 17 -5.98 17 -7 17 C-6.65213292 18.97536745 -6.65213292 18.97536745 -6 21 C-5.34 21.33 -4.68 21.66 -4 22 C-6.3125 21.8125 -6.3125 21.8125 -9 21 C-10.75 18.5625 -10.75 18.5625 -12 16 C-12.33 15.34 -12.66 14.68 -13 14 C-13.46776468 9.32235317 -13.72969391 6.3373883 -10.75 2.5625 C-6.92641988 -1.00038147 -4.93052034 -1.58481011 0 0 Z " fill="#EA7C35" transform="translate(122,260)"/>
<path d="M0 0 C6.25727494 0.91605914 9.69148211 4.32822615 13.37109375 9.234375 C13.83515625 10.348125 13.83515625 10.348125 14.30859375 11.484375 C13.97859375 12.144375 13.64859375 12.804375 13.30859375 13.484375 C11.30859375 12.484375 11.30859375 12.484375 10.43359375 9.984375 C10.06234375 9.159375 9.69109375 8.334375 9.30859375 7.484375 C7.98555658 7.1122708 6.6512144 6.77807327 5.30859375 6.484375 C4.05859375 4.421875 4.05859375 4.421875 3.30859375 2.484375 C0.66859375 3.474375 -1.97140625 4.464375 -4.69140625 5.484375 C-4.69140625 4.824375 -4.69140625 4.164375 -4.69140625 3.484375 C-7.74404289 2.50317036 -9.63876961 2.50317036 -12.69140625 3.484375 C-9.37364953 -0.88109437 -5.07230363 -0.11309484 0 0 Z " fill="#CB6D34" transform="translate(320.69140625,238.515625)"/>
<path d="M0 0 C4.95928324 2.61739949 7.83342678 5.55019623 10.25 10.625 C11.30847514 15.38813812 11.5185117 20.14276537 11 25 C10.34 25.99 9.68 26.98 9 28 C9 23.71 9 19.42 9 15 C8.34 14.67 7.68 14.34 7 14 C7 12.68 7 11.36 7 10 C6.01 9.67 5.02 9.34 4 9 C3.29618843 7.01276732 2.6288189 5.01222047 2 3 C1.34 2.67 0.68 2.34 0 2 C0 1.34 0 0.68 0 0 Z " fill="#C7703A" transform="translate(186,241)"/>
<path d="M0 0 C1.10021484 -0.0299707 1.10021484 -0.0299707 2.22265625 -0.06054688 C7.55662178 -0.05577589 10.33510273 1.1095362 14.5 4.4375 C13.18 4.7675 11.86 5.0975 10.5 5.4375 C10.17 4.4475 9.84 3.4575 9.5 2.4375 C8.51 2.7675 7.52 3.0975 6.5 3.4375 C6.5 2.7775 6.5 2.1175 6.5 1.4375 C1.55 1.7675 -3.4 2.0975 -8.5 2.4375 C-8.83 3.4275 -9.16 4.4175 -9.5 5.4375 C-11.5 6.10416667 -13.5 6.77083333 -15.5 7.4375 C-15.83 8.4275 -16.16 9.4175 -16.5 10.4375 C-17.16 10.4375 -17.82 10.4375 -18.5 10.4375 C-18.5 12.0875 -18.5 13.7375 -18.5 15.4375 C-18.83 15.4375 -19.16 15.4375 -19.5 15.4375 C-19.98715502 11.34539784 -19.69955376 9.73683063 -17.375 6.25 C-12.70597529 0.71125501 -6.79237121 -0.06565561 0 0 Z " fill="#BA6737" transform="translate(128.5,238.5625)"/>
<path d="M0 0 C2.31374476 0.9254979 3.71780469 1.57818192 5.12109375 3.67578125 C6.26321489 6.69605716 6.22848699 9.21443232 6.1875 12.4375 C6.18105469 13.54996094 6.17460937 14.66242188 6.16796875 15.80859375 C5.77777778 23.22222222 5.77777778 23.22222222 3 26 C3 25.34 3 24.68 3 24 C1.35 23.67 -0.3 23.34 -2 23 C-2 23.66 -2 24.32 -2 25 C-4.64 24.34 -7.28 23.68 -10 23 C-7.48517468 22.37129367 -4.96482516 21.76390749 -2.4375 21.1875 C0.92027595 20.24505168 0.92027595 20.24505168 2.9375 18.4375 C4.60086702 14.62154038 4.65188132 11.08969753 4 7 C2.89940813 4.3890721 1.60723318 2.36062374 0 0 Z " fill="#C46A32" transform="translate(272,250)"/>
<path d="M0 0 C0.33 0 0.66 0 1 0 C1 13.53 1 27.06 1 41 C3.31 41 5.62 41 8 41 C8 40.34 8 39.68 8 39 C8.66 39 9.32 39 10 39 C10 40.32 10 41.64 10 43 C6.7 43 3.4 43 0 43 C0 28.81 0 14.62 0 0 Z " fill="#E27F40" transform="translate(294,239)"/>
<path d="M0 0 C0.99 0 1.98 0 3 0 C2.938125 1.010625 2.87625 2.02125 2.8125 3.0625 C3.02233275 7.46898771 3.85626804 10.15606683 6 14 C9.84265668 17.30895436 13.04786889 17.29130183 18 17 C14.7854393 19.14304046 12.77071584 19.47210474 8.94140625 19.39453125 C7 19 7 19 4.5 16.625 C3 14 3 14 3 12 C2.01 12.33 1.02 12.66 0 13 C-0.83796731 8.34462607 -1.0161692 4.62921525 0 0 Z " fill="#E76B26" transform="translate(162,255)"/>
<path d="M0 0 C0.66 0.33 1.32 0.66 2 1 C0.27628361 3.39992037 -1.4536905 5.7948874 -3.1875 8.1875 C-3.67025391 8.86103516 -4.15300781 9.53457031 -4.65039062 10.22851562 C-7.51415612 14.16859567 -10.45242716 17.65996342 -14 21 C-13.690625 20.484375 -13.38125 19.96875 -13.0625 19.4375 C-11.81024933 16.91399152 -11.81024933 16.91399152 -11.6875 13.5625 C-10.84603241 9.20216796 -9.27957345 7.87962547 -6 5 C-5.34 4.01 -4.68 3.02 -4 2 C-2 0.75 -2 0.75 0 0 Z " fill="#D66A2E" transform="translate(222,149)"/>
<path d="M0 0 C2.97922593 -0.02683987 5.95821295 -0.04676037 8.9375 -0.0625 C9.78763672 -0.07087891 10.63777344 -0.07925781 11.51367188 -0.08789062 C12.32255859 -0.09111328 13.13144531 -0.09433594 13.96484375 -0.09765625 C14.7137085 -0.10289307 15.46257324 -0.10812988 16.23413086 -0.11352539 C18 0 18 0 19 1 C19 3.64 19 6.28 19 9 C13.39 9 7.78 9 2 9 C4 7 4 7 7.0390625 6.8046875 C8.81410156 6.83949219 8.81410156 6.83949219 10.625 6.875 C12.40777344 6.90207031 12.40777344 6.90207031 14.2265625 6.9296875 C15.14179687 6.95289063 16.05703125 6.97609375 17 7 C17 5.02 17 3.04 17 1 C11.39 1 5.78 1 0 1 C0 0.67 0 0.34 0 0 Z " fill="#E5752F" transform="translate(94,227)"/>
<path d="M0 0 C1.63001953 0.01353516 1.63001953 0.01353516 3.29296875 0.02734375 C4.12441406 0.03894531 4.95585938 0.05054688 5.8125 0.0625 C5.8125 0.3925 5.8125 0.7225 5.8125 1.0625 C5.07 1.10375 4.3275 1.145 3.5625 1.1875 C-0.28301776 2.41107383 -1.23055483 4.65596582 -3.1875 8.0625 C-5.4975 7.0725 -7.8075 6.0825 -10.1875 5.0625 C-9.875 3.125 -9.875 3.125 -9.1875 1.0625 C-5.90230525 -0.03256492 -3.45086585 -0.03710608 0 0 Z " fill="#FB6D14" transform="translate(91.1875,228.9375)"/>
<path d="M0 0 C-0.639375 0.28875 -1.27875 0.5775 -1.9375 0.875 C-4.15206079 1.82823451 -4.15206079 1.82823451 -5 4 C-6.45823212 4.0270043 -7.91660675 4.04639787 -9.375 4.0625 C-10.18710938 4.07410156 -10.99921875 4.08570313 -11.8359375 4.09765625 C-14 4 -14 4 -16 3 C-16 2.34 -16 1.68 -16 1 C-14.08833753 0.4409289 -12.17038424 -0.09666462 -10.25 -0.625 C-9.18265625 -0.92664063 -8.1153125 -1.22828125 -7.015625 -1.5390625 C-3.78111062 -2.03345719 -2.66125745 -1.79570284 0 0 Z " fill="#F56D1D" transform="translate(133,277)"/>
<path d="M0 0 C0.33 0 0.66 0 1 0 C1.40336134 12.39215686 1.40336134 12.39215686 -1 18 C-3.625 20.4375 -3.625 20.4375 -6 22 C-5.73958333 20.01432292 -5.47916667 18.02864583 -5.21875 16.04296875 C-4.946767 13.84528294 -4.946767 13.84528294 -5 11 C-4.360625 10.608125 -3.72125 10.21625 -3.0625 9.8125 C0.14292723 6.9956094 -0.27325268 4.16710334 0 0 Z " fill="#EE762A" transform="translate(287,256)"/>
<path d="M0 0 C2.31 0 4.62 0 7 0 C7 0.33 7 0.66 7 1 C5.02 1 3.04 1 1 1 C1 1.66 1 2.32 1 3 C4.3 3.66 7.6 4.32 11 5 C11 5.33 11 5.66 11 6 C1.58997722 8.11161731 1.58997722 8.11161731 -3 9 C-3.33 7.35 -3.66 5.7 -4 4 C-3.34 4 -2.68 4 -2 4 C-1.34 2.68 -0.68 1.36 0 0 Z " fill="#F2782A" transform="translate(167,242)"/>
<path d="M0 0 C1.21386936 3.64160808 0.6674695 4.33165469 -0.9375 7.6875 C-1.31777344 8.49574219 -1.69804687 9.30398437 -2.08984375 10.13671875 C-2.39019531 10.75160156 -2.69054687 11.36648437 -3 12 C-2.319375 11.835 -1.63875 11.67 -0.9375 11.5 C2.4164822 10.92910941 5.60389805 10.93340977 9 11 C0.98837209 15.31395349 0.98837209 15.31395349 -3.375 14.625 C-3.91125 14.41875 -4.4475 14.2125 -5 14 C-5.23509196 9.18061476 -4.45184478 5.53701494 -3 1 C-2.01 1.33 -1.02 1.66 0 2 C0 1.34 0 0.68 0 0 Z " fill="#D27336" transform="translate(208,128)"/>
<path d="M0 0 C0.99 0.33 1.98 0.66 3 1 C3.33 3.64 3.66 6.28 4 9 C3.360625 9.2475 2.72125 9.495 2.0625 9.75 C-0.18741541 10.81562433 -0.18741541 10.81562433 -0.75 13.125 C-0.8325 13.74375 -0.915 14.3625 -1 15 C-1.66 15 -2.32 15 -3 15 C-3.22278115 11.10132994 -2.45269257 8.58330834 -1 5 C-1.33 4.34 -1.66 3.68 -2 3 C-1.34 2.01 -0.68 1.02 0 0 Z " fill="#FA6B16" transform="translate(191,177)"/>
<path d="M0 0 C0.66 0 1.32 0 2 0 C1.25749403 4.08378283 0.17076699 8.01939223 -1 12 C-1.66 12 -2.32 12 -3 12 C-3 14.64 -3 17.28 -3 20 C-3.33 20 -3.66 20 -4 20 C-4 14.39 -4 8.78 -4 3 C-2.68 3.33 -1.36 3.66 0 4 C0 2.68 0 1.36 0 0 Z " fill="#E86E23" transform="translate(136,92)"/>
<path d="M0 0 C3.08365651 2.81551247 3.9435914 4.81067917 4.14526367 9.06274414 C4.18567933 15.68873871 4.18567933 15.68873871 4.18530273 18.93383789 C4.18749567 21.0583073 4.20568341 23.18226261 4.22460938 25.30664062 C4.22754228 26.65364406 4.22952776 28.00064995 4.23046875 29.34765625 C4.23457764 30.57492432 4.23868652 31.80219238 4.24291992 33.06665039 C4 36 4 36 2 38 C2.01047363 37.14245117 2.02094727 36.28490234 2.03173828 35.40136719 C2.06588296 32.21078487 2.09092959 29.02029588 2.10986328 25.82958984 C2.11990253 24.45032685 2.13353677 23.07108504 2.15087891 21.69189453 C2.17521754 19.7061486 2.18543255 17.7202455 2.1953125 15.734375 C2.20578613 14.54038086 2.21625977 13.34638672 2.22705078 12.11621094 C2.00640549 9.08791356 1.46882356 7.5832277 0 5 C-0.125 2.25 -0.125 2.25 0 0 Z " fill="#BA7042" transform="translate(143,244)"/>
<path d="M0 0 C0 3.35730744 -0.48482716 4.07999269 -2.3359375 6.7578125 C-2.82320312 7.46550781 -3.31046875 8.17320312 -3.8125 8.90234375 C-4.328125 9.63582031 -4.84375 10.36929688 -5.375 11.125 C-6.13683594 12.23681641 -6.13683594 12.23681641 -6.9140625 13.37109375 C-10.73102679 18.86551339 -10.73102679 18.86551339 -13 20 C-12.60304363 18.37007308 -12.18167507 16.74607765 -11.75 15.125 C-11.51796875 14.22007812 -11.2859375 13.31515625 -11.046875 12.3828125 C-9.78410127 9.50858872 -8.80380977 9.19442296 -6 8 C-5.31867549 6.33927151 -4.65257873 4.672233 -4 3 C-1.875 1.1875 -1.875 1.1875 0 0 Z " fill="#C8703F" transform="translate(207,170)"/>
<path d="M0 0 C0.66 0 1.32 0 2 0 C4.125 7.625 4.125 7.625 3 11 C-0.0625 12.1875 -0.0625 12.1875 -3 13 C-2.68817931 11.58318366 -2.37551263 10.16655349 -2.0625 8.75 C-1.88847656 7.96109375 -1.71445313 7.1721875 -1.53515625 6.359375 C-1.052444 4.23121297 -0.53836822 2.11467158 0 0 Z " fill="#DC6F29" transform="translate(188,166)"/>
<path d="M0 0 C4.6056338 0.76760563 4.6056338 0.76760563 6.75 2.03125 C9.82550468 3.35542563 12.41779747 3.19164405 15.75 3.125 C16.92046875 3.10695313 18.0909375 3.08890625 19.296875 3.0703125 C20.18890625 3.04710937 21.0809375 3.02390625 22 3 C22 2.34 22 1.68 22 1 C23.98 0.67 25.96 0.34 28 0 C24.9722415 3.50582564 21.74164176 4.79340525 17.16796875 5.3359375 C10.25513564 5.4265382 5.90746704 4.63536433 0 1 C0 0.67 0 0.34 0 0 Z " fill="#BC693D" transform="translate(253,278)"/>
<path d="M0 0 C2.875 0.3125 2.875 0.3125 6 1 C7.74627478 3.61941217 8.38722388 5.03824877 9 8 C6.75 8.375 6.75 8.375 4 8 C0 3.02702703 0 3.02702703 0 0 Z " fill="#FA6C12" transform="translate(204,245)"/>
<path d="M0 0 C2 3 2 3 1.7578125 5.48046875 C1.54898438 6.37378906 1.34015625 7.26710937 1.125 8.1875 C0.92132813 9.08855469 0.71765625 9.98960937 0.5078125 10.91796875 C0.25644531 11.94857422 0.25644531 11.94857422 0 13 C0.66 13 1.32 13 2 13 C1.67 14.32 1.34 15.64 1 17 C0.01 16.67 -0.98 16.34 -2 16 C-2 16.99 -2 17.98 -2 19 C-1.34 19.33 -0.68 19.66 0 20 C-0.99 20 -1.98 20 -3 20 C-3.48452463 13.05514697 -1.69287491 6.7009632 0 0 Z " fill="#EF7629" transform="translate(172,147)"/>
<path d="M0 0 C0.66 0.33 1.32 0.66 2 1 C2 2.98 2 4.96 2 7 C1.01 7.33 0.02 7.66 -1 8 C-1 8.66 -1 9.32 -1 10 C-2.98 10.99 -2.98 10.99 -5 12 C-5.33 11.67 -5.66 11.34 -6 11 C-8.32817964 10.63239269 -10.6618385 10.29758419 -13 10 C-13 9.67 -13 9.34 -13 9 C-11.35 9 -9.7 9 -8 9 C-8 8.34 -8 7.68 -8 7 C-5.36 6.67 -2.72 6.34 0 6 C0 4.02 0 2.04 0 0 Z " fill="#E67835" transform="translate(135,249)"/>
<path d="M0 0 C-0.33 1.65 -0.66 3.3 -1 5 C-2.32 5.33 -3.64 5.66 -5 6 C-5 7.65 -5 9.3 -5 11 C-5.99 11.495 -5.99 11.495 -7 12 C-7.30192308 4.15 -7.30192308 4.15 -5 1 C-2 0 -2 0 0 0 Z " fill="#D56C31" transform="translate(140,82)"/>
<path d="M0 0 C-2.31 1.32 -4.62 2.64 -7 4 C-6.67 4.66 -6.34 5.32 -6 6 C-6 6.99 -6 7.98 -6 9 C-6.99 9.495 -6.99 9.495 -8 10 C-8 9.34 -8 8.68 -8 8 C-9.65 8.66 -11.3 9.32 -13 10 C-11.14151866 5.81841699 -8.78816229 2.19210819 -4.9375 -0.375 C-3 -1 -3 -1 0 0 Z " fill="#C86A2D" transform="translate(260,241)"/>
<path d="M0 0 C3.96 0 7.92 0 12 0 C14.08954032 4.17908064 14.16552619 4.80410573 13 9 C12.34 8.67 11.68 8.34 11 8 C11.33 7.01 11.66 6.02 12 5 C11.22058956 2.88754258 11.22058956 2.88754258 9.4375 2.375 C5.93601819 1.83631049 2.54193167 1.94096781 -1 2 C-0.67 1.34 -0.34 0.68 0 0 Z " fill="#C9632C" transform="translate(122,247)"/>
<path d="M0 0 C2.65802025 1.08011424 4.62427232 2.34731987 7 4 C6.67 4.66 6.34 5.32 6 6 C3.36 5.34 0.72 4.68 -2 4 C-2 3.01 -2 2.02 -2 1 C-5.63 1.33 -9.26 1.66 -13 2 C-8.74494293 -0.83670471 -4.99776266 -0.64925618 0 0 Z " fill="#BF6B3D" transform="translate(230,239)"/>
<path d="M0 0 C0.33 0.66 0.66 1.32 1 2 C-2.08290155 6.22797927 -2.08290155 6.22797927 -4 8 C-6.8125 8.375 -6.8125 8.375 -9 8 C-9.33 7.34 -9.66 6.68 -10 6 C-9.030625 5.54625 -8.06125 5.0925 -7.0625 4.625 C-3.92920418 3.34213779 -3.92920418 3.34213779 -3 1 C-2.01 0.67 -1.02 0.34 0 0 Z " fill="#DE702C" transform="translate(193,272)"/>
<path d="M0 0 C1.65 0 3.3 0 5 0 C4.49396008 2.16874252 4.00016187 3.99967627 3 6 C0.03 5.505 0.03 5.505 -3 5 C-3.33 4.01 -3.66 3.02 -4 2 C-2.68 2 -1.36 2 0 2 C0 1.34 0 0.68 0 0 Z " fill="#F66F19" transform="translate(263,275)"/>
<path d="M0 0 C0 0.33 0 0.66 0 1 C-2.12437048 1.50266794 -4.24951726 2.0020561 -6.375 2.5 C-7.55835937 2.7784375 -8.74171875 3.056875 -9.9609375 3.34375 C-13 4 -13 4 -15 4 C-15 5.98 -15 7.96 -15 10 C-15.33 10 -15.66 10 -16 10 C-16.3125 6.6875 -16.3125 6.6875 -16 3 C-11.88669125 -1.39698521 -5.56457545 -0.26312353 0 0 Z " fill="#E77636" transform="translate(134,262)"/>
<path d="M0 0 C0.33 1.32 0.66 2.64 1 4 C2.98 4 4.96 4 7 4 C7.33 4.66 7.66 5.32 8 6 C7.01 6 6.02 6 5 6 C5.34786708 7.97536745 5.34786708 7.97536745 6 10 C6.66 10.33 7.32 10.66 8 11 C5.6875 10.8125 5.6875 10.8125 3 10 C0.31551796 6.66753954 -0.36325349 4.23795734 0 0 Z " fill="#DB7132" transform="translate(110,271)"/>
<path d="M0 0 C0 3.63563409 -0.82542733 5.12645755 -3 8 C-4.32 8 -5.64 8 -7 8 C-7.33 7.34 -7.66 6.68 -8 6 C-8.99 5.34 -9.98 4.68 -11 4 C-9.1128125 3.566875 -9.1128125 3.566875 -7.1875 3.125 C-4.1460601 2.42696461 -2.69330122 1.79553415 0 0 Z " fill="#EE752B" transform="translate(323,270)"/>
<path d="M0 0 C0 0.66 0 1.32 0 2 C0.66 2 1.32 2 2 2 C2.33 3.65 2.66 5.3 3 7 C1.125 6.6875 1.125 6.6875 -1 6 C-1.66 5.01 -2.32 4.02 -3 3 C-3.33 3.66 -3.66 4.32 -4 5 C-4.66 5 -5.32 5 -6 5 C-6 3.35 -6 1.7 -6 0 C-2.25 -1.125 -2.25 -1.125 0 0 Z " fill="#D3601B" transform="translate(218,241)"/>
<path d="M0 0 C0.33 1.32 0.66 2.64 1 4 C-3.85359495 8.01676824 -9.04972335 7.28136159 -15 7 C-15 6.67 -15 6.34 -15 6 C-11.7 6 -8.4 6 -5 6 C-4.67 4.68 -4.34 3.36 -4 2 C-1.9375 0.75 -1.9375 0.75 0 0 Z " fill="#CC6735" transform="translate(133,276)"/>
<path d="M0 0 C0.66 0.33 1.32 0.66 2 1 C1.34 1.66 0.68 2.32 0 3 C0.33 4.32 0.66 5.64 1 7 C4.3 7 7.6 7 11 7 C10.67 7.99 10.34 8.98 10 10 C5.45194365 10.17835515 2.1205746 9.99785435 -2 8 C-2 5.69 -2 3.38 -2 1 C-1.34 0.67 -0.68 0.34 0 0 Z " fill="#AE5C30" transform="translate(121,265)"/>
<path d="M0 0 C2 1.3125 2 1.3125 4 4 C4.66928526 9.19863438 4.95300832 13.57048752 2 18 C2 13.71 2 9.42 2 5 C1.34 4.67 0.68 4.34 0 4 C0 2.68 0 1.36 0 0 Z " fill="#DC763D" transform="translate(193,251)"/>
<path d="M0 0 C2.9375 1.3125 2.9375 1.3125 6 3 C7.1577506 6.47325181 7.06866652 9.36067448 7 13 C3.06153846 8.69230769 3.06153846 8.69230769 2.75 5.1875 C2.8325 4.465625 2.915 3.74375 3 3 C2.01 2.67 1.02 2.34 0 2 C0 1.34 0 0.68 0 0 Z " fill="#E27737" transform="translate(233,243)"/>
<path d="M0 0 C1.93742341 -0.02703381 3.87495479 -0.04641125 5.8125 -0.0625 C6.89144531 -0.07410156 7.97039062 -0.08570313 9.08203125 -0.09765625 C12 0 12 0 15 1 C14.34 3.31 13.68 5.62 13 8 C11 5 11 5 11 2 C7.37 1.67 3.74 1.34 0 1 C0 0.67 0 0.34 0 0 Z " fill="#F27C34" transform="translate(123,240)"/>
<path d="M0 0 C0.33 0 0.66 0 1 0 C0.42978066 5.3503559 -0.20734361 10.67787852 -1 16 C0.32 16.33 1.64 16.66 3 17 C3 17.33 3 17.66 3 18 C1.33388095 18.042721 -0.33382885 18.04063832 -2 18 C-2.33 17.67 -2.66 17.34 -3 17 C-2.83441026 11.17888361 -1.52509843 5.59202759 0 0 Z " fill="#BA6A3D" transform="translate(170,151)"/>
<path d="M0 0 C1.98 0 3.96 0 6 0 C5.4225 0.495 4.845 0.99 4.25 1.5 C1.38327116 4.68525427 -0.23238891 8.1262991 -2 12 C-2.84062397 8.90226756 -3.08935201 6.21667249 -3 3 C-2.34 3 -1.68 3 -1 3 C-0.67 2.01 -0.34 1.02 0 0 Z " fill="#F67528" transform="translate(212,113)"/>
<path d="M0 0 C1.06546953 3.1964086 1.07427838 5.65747276 1 9 C-0.98 9 -2.96 9 -5 9 C-5 8.01 -5 7.02 -5 6 C-4.34 5.67 -3.68 5.34 -3 5 C-3 3.68 -3 2.36 -3 1 C-2.01 0.67 -1.02 0.34 0 0 Z " fill="#FB6B13" transform="translate(116,265)"/>
<path d="M0 0 C0.99 1.485 0.99 1.485 2 3 C5.20277098 6.63557787 7.13807244 8.50134076 12 9 C13.33542939 9.32483418 14.66961551 9.6550855 16 10 C12.26407441 11.24530853 8.85290418 11.92949439 5 11 C2.69920077 8.99643321 1.18623552 6.80590325 0 4 C0 2.68 0 1.36 0 0 Z " fill="#BA6629" transform="translate(164,263)"/>
<path d="M0 0 C1.32 0.33 2.64 0.66 4 1 C3.67 2.32 3.34 3.64 3 5 C2.01 4.34 1.02 3.68 0 3 C0 2.01 0 1.02 0 0 Z M2 5 C2.33 5.99 2.66 6.98 3 8 C-0.63 8 -4.26 8 -8 8 C-6 6 -6 6 -3 5.8125 C0 6 0 6 2 7 C2 6.34 2 5.68 2 5 Z " fill="#DC681E" transform="translate(270,242)"/>
<path d="M0 0 C0.33 0.66 0.66 1.32 1 2 C1.99 2 2.98 2 4 2 C3.29666462 4.97722547 2.41751463 7.85256543 1.4375 10.75 C1.03337891 11.94882812 1.03337891 11.94882812 0.62109375 13.171875 C0.41613281 13.77515625 0.21117187 14.3784375 0 15 C-1.14229879 11.57310364 -0.90861076 9.38897782 -0.5625 5.8125 C-0.46066406 4.72582031 -0.35882813 3.63914062 -0.25390625 2.51953125 C-0.17011719 1.68808594 -0.08632812 0.85664063 0 0 Z " fill="#F47930" transform="translate(186,254)"/>
<path d="M0 0 C0.79921875 0.01804688 1.5984375 0.03609375 2.421875 0.0546875 C3.02515625 0.07789063 3.6284375 0.10109375 4.25 0.125 C4.25 0.455 4.25 0.785 4.25 1.125 C3.29287109 1.28935547 3.29287109 1.28935547 2.31640625 1.45703125 C1.49011719 1.61558594 0.66382813 1.77414063 -0.1875 1.9375 C-1.01121094 2.08832031 -1.83492188 2.23914063 -2.68359375 2.39453125 C-3.36550781 2.63558594 -4.04742187 2.87664062 -4.75 3.125 C-5.08 4.115 -5.41 5.105 -5.75 6.125 C-7.07 5.795 -8.39 5.465 -9.75 5.125 C-8.75 2.125 -8.75 2.125 -6.984375 0.9453125 C-4.49281777 0.03057995 -2.64383164 -0.07775975 0 0 Z " fill="#EF7B38" transform="translate(316.75,239.875)"/>
<path d="M0 0 C0 3.39593478 -0.52165948 4.06619881 -2.5 6.6875 C-2.9640625 7.31011719 -3.428125 7.93273437 -3.90625 8.57421875 C-4.2671875 9.04472656 -4.628125 9.51523438 -5 10 C-5.66 8.68 -6.32 7.36 -7 6 C-6.34 6 -5.68 6 -5 6 C-5 4.68 -5 3.36 -5 2 C-3.35 1.34 -1.7 0.68 0 0 Z " fill="#D16D39" transform="translate(193,190)"/>
<path d="M0 0 C0.64453125 1.765625 0.64453125 1.765625 1 4 C0.07421875 5.921875 0.07421875 5.921875 -1.3125 7.75 C-1.98732422 8.67039063 -1.98732422 8.67039063 -2.67578125 9.609375 C-3.11277344 10.06828125 -3.54976562 10.5271875 -4 11 C-4.66 11 -5.32 11 -6 11 C-5.67 9.35 -5.34 7.7 -5 6 C-3.68 5.67 -2.36 5.34 -1 5 C-0.67 3.35 -0.34 1.7 0 0 Z " fill="#EF762D" transform="translate(196,181)"/>
<path d="M0 0 C1.27875 0.103125 2.5575 0.20625 3.875 0.3125 C4.95394531 0.39951172 4.95394531 0.39951172 6.0546875 0.48828125 C8 1 8 1 10 4 C7.6875 4.625 7.6875 4.625 5 5 C4.01 4.34 3.02 3.68 2 3 C1.01 3.495 1.01 3.495 0 4 C0 2.68 0 1.36 0 0 Z " fill="#D2682D" transform="translate(304,277)"/>
<path d="M0 0 C-0.66 1.32 -1.32 2.64 -2 4 C-4.31 3.67 -6.62 3.34 -9 3 C-9 2.34 -9 1.68 -9 1 C-5.8035914 -0.06546953 -3.34252724 -0.07427838 0 0 Z " fill="#EC7B30" transform="translate(227,240)"/>
<path d="M0 0 C2.475 0.99 2.475 0.99 5 2 C3.59754024 6.32425093 2.90270266 7.072973 -1 10 C-0.67 6.7 -0.34 3.4 0 0 Z " fill="#DB7333" transform="translate(282,268)"/>
<path d="M0 0 C2.31 0 4.62 0 7 0 C7 0.33 7 0.66 7 1 C5.02 1 3.04 1 1 1 C1 2.98 1 4.96 1 7 C0.01 7.495 0.01 7.495 -1 8 C-1.99 7.01 -2.98 6.02 -4 5 C-3.34 4.67 -2.68 4.34 -2 4 C-0.86649466 1.98330173 -0.86649466 1.98330173 0 0 Z " fill="#EF7024" transform="translate(167,242)"/>
<path d="M0 0 C0.66 0 1.32 0 2 0 C2.66 2.64 3.32 5.28 4 8 C6.97 8.495 6.97 8.495 10 9 C10 9.33 10 9.66 10 10 C7.36 10 4.72 10 2 10 C1.34 6.7 0.68 3.4 0 0 Z " fill="#C76223" transform="translate(134,272)"/>
<path d="M0 0 C0.99 0.33 1.98 0.66 3 1 C3.33 2.98 3.66 4.96 4 7 C4.66 7 5.32 7 6 7 C5.67 8.32 5.34 9.64 5 11 C1.19015156 8.22920113 0.93159248 4.37131855 0 0 Z " fill="#E27931" transform="translate(247,267)"/>
<path d="M0 0 C0.33 0 0.66 0 1 0 C1.06058594 0.75925781 1.12117187 1.51851563 1.18359375 2.30078125 C1.26738281 3.29464844 1.35117188 4.28851563 1.4375 5.3125 C1.55931641 6.79169922 1.55931641 6.79169922 1.68359375 8.30078125 C1.91812559 11.09375599 1.91812559 11.09375599 3 14 C1.68 13.34 0.36 12.68 -1 12 C-1.08159574 7.83861737 -0.98248524 4.0527516 0 0 Z " fill="#C76D32" transform="translate(131,101)"/>
<path d="M0 0 C0.33 0.99 0.66 1.98 1 3 C1.66 3 2.32 3 3 3 C3 4.32 3 5.64 3 7 C2.01 7 1.02 7 0 7 C-0.33 7.66 -0.66 8.32 -1 9 C-1.80967438 6.08517222 -2.21845993 4.53886783 -1.0625 1.6875 C-0.711875 1.130625 -0.36125 0.57375 0 0 Z " fill="#F77122" transform="translate(260,98)"/>
<path d="M0 0 C2.64 0 5.28 0 8 0 C8 0.99 8 1.98 8 3 C5.69 3 3.38 3 1 3 C0.67 2.01 0.34 1.02 0 0 Z " fill="#F26F22" transform="translate(68,232)"/>
<path d="M0 0 C0.66 0 1.32 0 2 0 C1.67 1.65 1.34 3.3 1 5 C0.34 5 -0.32 5 -1 5 C-1 7.64 -1 10.28 -1 13 C-1.33 13 -1.66 13 -2 13 C-2 9.37 -2 5.74 -2 2 C-1.34 2 -0.68 2 0 2 C0 1.34 0 0.68 0 0 Z " fill="#F67322" transform="translate(134,99)"/>
<path d="M0 0 C0.66 0 1.32 0 2 0 C1.125 4.75 1.125 4.75 0 7 C-0.99 7 -1.98 7 -3 7 C-3.33 6.01 -3.66 5.02 -4 4 C-3.01 3.67 -2.02 3.34 -1 3 C-0.67 2.01 -0.34 1.02 0 0 Z " fill="#F76F11" transform="translate(330,270)"/>
<path d="M0 0 C1.38938077 1.96147874 2.7260411 3.96166576 4 6 C3.236875 5.67 2.47375 5.34 1.6875 5 C-0.99069135 3.82563314 -0.99069135 3.82563314 -4 4 C-4.33 3.01 -4.66 2.02 -5 1 C-2 0 -2 0 0 0 Z " fill="#F57A28" transform="translate(165,267)"/>
<path d="M0 0 C-3.22515763 1.73662334 -6.51329166 2.8905928 -10 4 C-10 3.01 -10 2.02 -10 1 C-6.52674819 -0.1577506 -3.63932552 -0.06866652 0 0 Z " fill="#E27636" transform="translate(217,139)"/>
<path d="M0 0 C1.22589844 0.01353516 1.22589844 0.01353516 2.4765625 0.02734375 C3.41628906 0.04474609 3.41628906 0.04474609 4.375 0.0625 C4.375 0.3925 4.375 0.7225 4.375 1.0625 C2.725 1.0625 1.075 1.0625 -0.625 1.0625 C-0.625 2.0525 -0.625 3.0425 -0.625 4.0625 C-1.285 4.0625 -1.945 4.0625 -2.625 4.0625 C-2.625 3.4025 -2.625 2.7425 -2.625 2.0625 C-3.945 1.7325 -5.265 1.4025 -6.625 1.0625 C-4.21954362 -0.14022819 -2.67503047 -0.03821472 0 0 Z " fill="#ED823F" transform="translate(176.625,239.9375)"/>
<path d="M0 0 C0 0.66 0 1.32 0 2 C-6.0546875 2.1953125 -6.0546875 2.1953125 -8 2 C-8.66 1.34 -9.32 0.68 -10 0 C-6.7169902 -1.6415049 -3.57454967 -0.51888624 0 0 Z " fill="#ED7129" transform="translate(130,241)"/>
<path d="M0 0 C0.33 0.66 0.66 1.32 1 2 C-0.670625 2.2165625 -0.670625 2.2165625 -2.375 2.4375 C-5.82142047 2.78372035 -5.82142047 2.78372035 -8 4 C-8 3.01 -8 2.02 -8 1 C-5.29120665 -0.35439668 -2.99066732 -0.06501451 0 0 Z " fill="#F37221" transform="translate(76,227)"/>
<path d="M0 0 C2.64 0.99 5.28 1.98 8 3 C4.29847322 3.92538169 3.36541838 4.08174162 0 3 C-0.33 3.66 -0.66 4.32 -1 5 C-0.67 3.35 -0.34 1.7 0 0 Z " fill="#E56A2D" transform="translate(275,241)"/>
<path d="M0 0 C1.485 0.99 1.485 0.99 3 2 C2.34 5.3 1.68 8.6 1 12 C0.67 12 0.34 12 0 12 C0 8.04 0 4.08 0 0 Z " fill="#F27C31" transform="translate(326,256)"/>
<path d="M0 0 C2.31 0.33 4.62 0.66 7 1 C6.34 2.32 5.68 3.64 5 5 C4.34 5 3.68 5 3 5 C1.375 2.5 1.375 2.5 0 0 Z " fill="#F0772C" transform="translate(273,249)"/>
<path d="M0 0 C1.2065625 0.0309375 1.2065625 0.0309375 2.4375 0.0625 C2.7675 0.7225 3.0975 1.3825 3.4375 2.0625 C2.7775 2.0625 2.1175 2.0625 1.4375 2.0625 C1.4375 2.7225 1.4375 3.3825 1.4375 4.0625 C0.4475 4.0625 -0.5425 4.0625 -1.5625 4.0625 C-1.5625 3.4025 -1.5625 2.7425 -1.5625 2.0625 C-2.2225 1.7325 -2.8825 1.4025 -3.5625 1.0625 C-2.5625 0.0625 -2.5625 0.0625 0 0 Z " fill="#F36C1A" transform="translate(222.5625,244.9375)"/>
<path d="M0 0 C0.99 0 1.98 0 3 0 C2.67 1.32 2.34 2.64 2 4 C0.35 4 -1.3 4 -3 4 C-1.6875 2 -1.6875 2 0 0 Z " fill="#F66E16" transform="translate(131,242)"/>
<path d="M0 0 C2.1519437 3.22791555 2.20086443 4.28400809 2 8 C1.01 7.67 0.02 7.34 -1 7 C-0.67 4.69 -0.34 2.38 0 0 Z " fill="#EF7423" transform="translate(174,140)"/>
<path d="" fill="#000000" transform="translate(0,0)"/>
<path d="" fill="#000000" transform="translate(0,0)"/>
<path d="" fill="#000000" transform="translate(0,0)"/>
<path d="" fill="#000000" transform="translate(0,0)"/>
<path d="" fill="#000000" transform="translate(0,0)"/>
<path d="" fill="#000000" transform="translate(0,0)"/>
<path d="" fill="#000000" transform="translate(0,0)"/>
<path d="" fill="#000000" transform="translate(0,0)"/>
<path d="" fill="#000000" transform="translate(0,0)"/>
<path d="" fill="#000000" transform="translate(0,0)"/>
<path d="" fill="#000000" transform="translate(0,0)"/>
<path d="" fill="#000000" transform="translate(0,0)"/>
<path d="" fill="#000000" transform="translate(0,0)"/>
<path d="" fill="#000000" transform="translate(0,0)"/>
<path d="" fill="#000000" transform="translate(0,0)"/>
<path d="" fill="#000000" transform="translate(0,0)"/>
<path d="" fill="#000000" transform="translate(0,0)"/>
<path d="" fill="#000000" transform="translate(0,0)"/>
<path d="" fill="#000000" transform="translate(0,0)"/>
<path d="" fill="#000000" transform="translate(0,0)"/>
<path d="" fill="#000000" transform="translate(0,0)"/>
<path d="" fill="#000000" transform="translate(0,0)"/>
<path d="" fill="#000000" transform="translate(0,0)"/>
<path d="" fill="#000000" transform="translate(0,0)"/>
<path d="" fill="#000000" transform="translate(0,0)"/>
<path d="" fill="#000000" transform="translate(0,0)"/>
<path d="" fill="#000000" transform="translate(0,0)"/>
<path d="" fill="#000000" transform="translate(0,0)"/>
<path d="" fill="#000000" transform="translate(0,0)"/>
<path d="" fill="#000000" transform="translate(0,0)"/>
<path d="" fill="#000000" transform="translate(0,0)"/>
<path d="" fill="#000000" transform="translate(0,0)"/>
<path d="" fill="#000000" transform="translate(0,0)"/>
<path d="" fill="#000000" transform="translate(0,0)"/>
<path d="" fill="#000000" transform="translate(0,0)"/>
<path d="" fill="#000000" transform="translate(0,0)"/>
<path d="" fill="#000000" transform="translate(0,0)"/>
<path d="" fill="#000000" transform="translate(0,0)"/>
<path d="" fill="#000000" transform="translate(0,0)"/>
<path d="" fill="#000000" transform="translate(0,0)"/>
<path d="" fill="#000000" transform="translate(0,0)"/>
<path d="" fill="#000000" transform="translate(0,0)"/>
<path d="" fill="#000000" transform="translate(0,0)"/>
<path d="" fill="#000000" transform="translate(0,0)"/>
<path d="" fill="#000000" transform="translate(0,0)"/>
<path d="" fill="#000000" transform="translate(0,0)"/>
<path d="" fill="#000000" transform="translate(0,0)"/>
<path d="" fill="#000000" transform="translate(0,0)"/>
<path d="" fill="#000000" transform="translate(0,0)"/>
<path d="" fill="#000000" transform="translate(0,0)"/>
<path d="" fill="#000000" transform="translate(0,0)"/>
<path d="" fill="#000000" transform="translate(0,0)"/>
<path d="" fill="#000000" transform="translate(0,0)"/>
<path d="" fill="#000000" transform="translate(0,0)"/>
<path d="" fill="#000000" transform="translate(0,0)"/>
<path d="" fill="#000000" transform="translate(0,0)"/>
<path d="" fill="#000000" transform="translate(0,0)"/>
<path d="" fill="#000000" transform="translate(0,0)"/>
<path d="" fill="#000000" transform="translate(0,0)"/>
<path d="" fill="#000000" transform="translate(0,0)"/>
<path d="" fill="#000000" transform="translate(0,0)"/>
<path d="" fill="#000000" transform="translate(0,0)"/>
<path d="" fill="#000000" transform="translate(0,0)"/>
<path d="" fill="#000000" transform="translate(0,0)"/>
<path d="" fill="#000000" transform="translate(0,0)"/>
<path d="" fill="#000000" transform="translate(0,0)"/>
<path d="" fill="#000000" transform="translate(0,0)"/>
<path d="" fill="#000000" transform="translate(0,0)"/>
<path d="" fill="#000000" transform="translate(0,0)"/>
<path d="" fill="#000000" transform="translate(0,0)"/>
<path d="" fill="#000000" transform="translate(0,0)"/>
<path d="" fill="#000000" transform="translate(0,0)"/>
<path d="" fill="#000000" transform="translate(0,0)"/>
<path d="" fill="#000000" transform="translate(0,0)"/>
<path d="" fill="#000000" transform="translate(0,0)"/>
<path d="" fill="#000000" transform="translate(0,0)"/>
</svg>
